<svg xmlns="http://www.w3.org/2000/svg" viewBox="0 0 1024 1024"><path d="M938.666 476.159h-179.2l136.532-136.532-59.732-59.732-196.268 196.268h-85.332v-85.332l200.532-200.532-59.732-59.732-140.8 140.8v-179.2h-85.332v179.2l-136.532-140.8-64 59.732 200.532 200.532v85.332h-85.332L183.47 275.631l-59.732 64 140.8 136.532h-179.2v85.332h179.2L128.006 698.027l59.732 59.732 196.268-196.268h85.332v85.332L268.806 847.355l59.732 59.732L465.07 770.555v174.932h85.332v-179.2l136.532 136.532 59.732-59.732-192-196.268v-85.332h85.332L840.53 762.019l59.732-59.732-140.8-140.8h179.2z"/></svg>