<svg xmlns="http://www.w3.org/2000/svg" viewBox="0 0 1037 1024"><path d="M518.497 262.827c47.13 0 85.332-38.206 85.332-85.332s-38.206-85.332-85.332-85.332c-47.13 0-85.332 38.206-85.332 85.332s38.206 85.332 85.332 85.332zm298.668 298.668v-85.332c-68.71-2.216-130.25-31.178-174.89-76.755l-55.51-59.777a89.204 89.204 0 0 0-25.035-16.84l-.565-.228c-13.69-10.65-31.125-17.074-50.059-17.074-.401 0-.802.003-1.201.01-43.49 5.682-76.771 42.55-76.771 87.193 0 .847.01 1.69.035 2.53l-.003 251.61c0 47.13 38.206 85.332 85.332 85.332H731.83v213.332h85.332V710.828c0-47.13-38.206-85.332-85.332-85.332h-128V480.428c58.287 46.75 131.943 76.57 212.366 81.025zM552.63 774.827c-16.812 49.982-63.246 85.343-117.935 85.343-.538 0-1.075-.004-1.61-.01-70.61.001-127.918-57.308-127.918-127.999-.007-.454-.01-.991-.01-1.53 0-54.69 35.361-101.124 84.469-117.68l.874-89.855C292.43 543.64 219.832 629.403 219.832 732.12v.047c0 117.818 95.511 213.33 213.332 213.33 101.967-2.137 186.63-73.683 208.778-169.19z"/></svg>