<svg xmlns="http://www.w3.org/2000/svg" viewBox="0 0 1024 1024"><path d="M512 92.159c-235.642 0-426.668 191.026-426.668 426.668S276.358 945.495 512 945.495s426.668-191.026 426.668-426.668S747.642 92.159 512 92.159zm0 128c70.691 0 128 57.309 128 128s-57.309 128-128 128-128-57.309-128-128 57.309-128 128-128zm0 605.868c-1.19.016-2.59.028-3.996.028-105.041 0-197.508-53.842-251.306-135.43-.699-86.462 169.969-133.394 255.301-133.394s256 46.932 256 132.268c-56.5 82.413-149.935 135.933-255.909 136.532z"/></svg>