<svg xmlns="http://www.w3.org/2000/svg" viewBox="0 0 1029 1024"><path d="M485.293 607.971l-81.92-40.534-.428.852 39.254 82.776 43.094-43.094zm169.388-201.816a141.133 141.133 0 0 0-24.62-20.147c-7.867-5.033-16.517-8.35-25.811-9.68a50.505 50.505 0 0 0-6.266-.39 50.197 50.197 0 0 0-20.429 4.316c-9.98 4.611-18.752 10.929-26.103 18.613l-26.057 26.058 104.96 104.96 32.853-32.853a67.188 67.188 0 0 0 12.626-17.532 48.144 48.144 0 0 0 4.869-22.2c-.219-8.99-2.4-17.47-6.131-25.05-5.193-9.891-11.891-18.632-19.84-26.049zm260.696 95.572L531.371 117.721c-15.224-15.528-36.311-25.255-59.671-25.599l-298.737-.001c-47.13 0-85.336 38.206-85.336 85.336v298.672c.345 23.425 10.072 44.512 25.587 59.72l384.021 384.02c15.035 15.822 36.234 25.665 59.736 25.665s44.697-9.843 59.7-25.631l298.704-298.706c15.822-15.035 25.665-36.234 25.665-59.736s-9.843-44.697-25.631-59.7zM236.969 305.459c-34.969-.926-63.076-29.033-63.998-63.916.924-35.054 29.032-63.162 63.914-64.086 35.054.924 63.162 29.032 64.086 63.914-.924 35.054-29.032 63.162-63.914 64.086zm334.936 344.324l-49.495-24.32-62.296 64 23.892 50.348-36.693 36.693-103.68-231.256 37.548-37.548 228.696 104.108zm151.044-163.841c-6.331 15.551-15.447 28.775-26.834 39.637l-71.726 71.723-166.404-166.404 71.68-71.68a121.972 121.972 0 0 1 34.253-24.432c12.091-5.705 25.412-8.851 39.468-8.851l.549.002c15.502.141 30.155 3.747 43.245 10.077 15.918 7.613 30.033 17.772 42.038 30.007a167.18 167.18 0 0 1 28.604 37.577c7.249 13.185 11.699 27.719 12.789 43.182.03.86.035 1.485.035 2.11 0 13.397-2.831 26.133-7.931 37.643z"/></svg>