<svg xmlns="http://www.w3.org/2000/svg" viewBox="0 0 1024 1024"><path d="M201.172 244.602V134.829h73.181v109.773H385.81v73.181H274.353v109.773h-73.181V317.783H91.399v-73.181zM310.95 464.151V354.378h109.773V244.605h256.14l66.453 73.181H859.42c40.419 0 73.181 32.767 73.181 73.181 0 .591-.009 1.179-.022 1.772l.002 436.905c0 40.419-32.767 73.181-73.181 73.181H274.357c-40.419 0-73.181-32.767-73.181-73.181V464.149zm256.139 329.322c.498.007 1.089.009 1.683.009 101.043 0 182.959-81.911 182.959-182.959S669.82 427.564 568.772 427.564c-100.895 0-182.712 81.67-182.958 182.507v.035c0 100.305 80.72 181.755 180.743 182.942zM450.161 610.514c0 64.575 52.35 116.923 116.923 116.923s116.923-52.35 116.923-116.923c0-64.575-52.35-116.923-116.923-116.923l-.423-.001c-64.43 0-116.685 52.11-116.922 116.483z"/></svg>