<svg xmlns="http://www.w3.org/2000/svg" viewBox="0 0 1024 1024"><path d="M824.041 801.149c-37.611.18-68.033 30.712-68.033 68.35 0 1.345.039 2.68.114 4.006-.016.213-.021.683-.021 1.151 0 38.115 30.077 69.207 67.791 70.83 40.008.006 72.319-32.309 72.319-72.169s-32.311-72.171-72.171-72.171zM369.779 92.159h280.199v59.435H369.779zm140.099 118.875c-195.29 0-356.616 97.646-382.09 229.252h764.179c-25.471-133.73-186.799-229.252-382.09-229.252zm0 517.943c195.29 0 356.616-97.646 382.09-229.252H127.789c25.471 131.61 186.799 229.252 382.09 229.252zm225.01-4.245c-21.95 10.248-48.711 20.354-76.282 28.593l25.336 30.843H335.815l29.718-29.718c-31.05-8.281-57.864-18.43-83.332-30.898l-154.41 162.509v55.19h55.19l93.4-97.646h428.79c8.239-38.118 31.47-69.684 63.07-88.81z"/></svg>