<svg xmlns="http://www.w3.org/2000/svg" viewBox="0 0 1024 1024"><path d="M512 92.159c-235.642 0-426.668 191.026-426.668 426.668S276.358 945.495 512 945.495s426.668-191.026 426.668-426.668S747.642 92.159 512 92.159zm4.268 768c-1.27.016-2.768.028-4.268.028-188.512 0-341.332-152.82-341.332-341.332S323.488 177.523 512 177.523c188.505 0 341.318 152.806 341.332 341.306.007.764.01 1.665.01 2.567 0 186.503-150.71 337.807-336.985 338.77zM576 497.495L443.732 629.763c17.115 18.225 41.367 29.574 68.268 29.574 51.68 0 93.574-41.894 93.574-93.574 0-24.779-9.63-47.31-25.354-64.05zm76.8-209.068H371.2a41.68 41.68 0 0 0-4.269-.213c-23.565 0-42.668 19.103-42.668 42.668l.001.227v-.01 375.468c.239 25.825 21.11 46.693 46.91 46.932h281.623c25.825-.239 46.693-21.11 46.932-46.91V331.098l.001-.213c0-23.565-19.103-42.668-42.668-42.668-1.503 0-2.989.077-4.45.23zm-187.732 42.668c11.782 0 21.332 9.55 21.332 21.332s-9.55 21.332-21.332 21.332-21.332-9.55-21.332-21.332a18.64 18.64 0 0 1-.044-1.324c0-11.074 8.978-20.052 20.052-20.052.467 0 .929.015 1.387.049zm-68.268 0a18.64 18.64 0 0 1 1.324-.044c11.074 0 20.052 8.978 20.052 20.052 0 .467-.015.929-.049 1.387.066.577.1 1.32.1 2.07 0 13.012-10.55 23.564-23.564 23.564-12.263 0-22.337-9.369-23.459-21.336 1.043-13.79 11.897-24.645 25.498-25.69zM512 706.559c-77.762 0-140.8-63.038-140.8-140.8s63.038-140.8 140.8-140.8c77.762 0 140.8 63.038 140.8 140.8-.716 77.47-63.33 140.084-140.73 140.799z"/></svg>