<svg xmlns="http://www.w3.org/2000/svg" viewBox="0 0 1024 1024"><path d="M392.533 723.627c68.267 68.267 174.933 68.267 243.2 0s68.267-174.933 0-243.2l-243.2 243.2zM768 92.16H256c-46.933 0-85.333 38.4-85.333 85.333V860.16c0 46.933 38.4 85.333 85.333 85.333h512c46.933 0 85.333-38.4 85.333-85.333V177.493c0-46.933-38.4-85.333-85.333-85.333zm-341.333 85.334c25.6 0 42.667 17.067 42.667 42.667s-17.067 42.667-42.667 42.667S384 245.761 384 220.161s17.067-42.667 42.667-42.667zm-128 0c25.6 0 42.667 17.067 42.667 42.667s-17.067 42.667-42.667 42.667S256 245.761 256 220.161s17.067-42.667 42.667-42.667zM512 860.16c-140.8 0-256-115.2-256-256s115.2-256 256-256 256 115.2 256 256-115.2 256-256 256z"/></svg>