<svg xmlns="http://www.w3.org/2000/svg" viewBox="0 0 1024 1024"><path d="M853.334 220.157H170.666c-47.131 0-85.336 38.204-85.336 85.336v426.669c0 47.131 38.204 85.336 85.336 85.336h682.668c47.131 0 85.336-38.204 85.336-85.336V305.493c0-47.131-38.204-85.336-85.336-85.336zM640 732.161H170.666V305.492H640zm149.337-127.998c-35.344 0-64.002-28.651-64.002-64.002s28.651-64.002 64.002-64.002c35.344 0 64.002 28.651 64.002 64.002s-28.651 64.002-64.002 64.002zm63.997-170.672H725.335V305.492h127.999z"/></svg>