<svg xmlns="http://www.w3.org/2000/svg" viewBox="0 0 1028 1024"><path d="M837.354 875.989c-46.934 74.154-97.152 110.762-145.024 110.762-28.853-1.95-55.682-8.324-80.58-18.458l1.732.624c-25.178-10.548-54.373-17.167-84.971-18.292l-.449-.012c-29.298 1.225-56.711 8.015-81.631 19.332l1.375-.56c-21.816 10.407-47.245 17.159-74.063 18.747l-.561.027c-58.198 0-114.048-46.934-169.898-145.962-49.391-80.391-79.87-177.121-83.051-280.723l-.021-.877c-.19-4.226-.299-9.183-.299-14.163 0-74.894 24.604-144.042 66.168-199.8l-.631.886c35.781-49.422 93.295-81.199 158.233-81.199.472 0 .942.002 1.413.005h-.073c36.189 1.458 70.369 7.873 102.586 18.589l-2.618-.755c22.614 7.905 49.02 13.861 76.337 16.76l1.573.136c29.699-2.626 57.089-9.456 82.601-19.923l-1.877.681c28.946-11.275 62.43-18.535 97.387-20.156l.703-.026c.899-.013 1.961-.022 3.025-.022 43.815 0 84.429 13.708 117.786 37.069l-.662-.439c22.434 16.188 41.756 34.765 58.201 55.705l.466.615c-24.305 19.525-45.463 41.43-63.627 65.705l-.671.939c-22.9 32.139-36.613 72.206-36.613 115.474 0 .489.002.978.006 1.464v-.076c-.007.613-.011 1.338-.011 2.063 0 46.321 14.588 89.234 39.419 124.397l-.454-.678c20.881 32.703 51.612 57.519 87.967 70.494l1.206.376c-18.151 53.872-42.006 100.633-71.603 143.092l1.203-1.822zM678.25 149.931c-12.524 30.392-30.154 56.304-52.066 77.88l-.03.03c-16.554 17.747-36.965 31.671-59.917 40.463l-1.096.369c-17.18 4.747-37.223 8.094-57.832 9.346l-.834.04-.001-.84c0-53.801 16.489-103.753 44.692-145.074l-.573.89c34.177-43.442 83.281-73.802 139.469-83.354l1.331-.187c0 5.162 0 8.918 2.816 12.202s0 7.51 0 11.264c-.626 27.887-6.431 54.252-16.486 78.401l.528-1.431z"/></svg>