<svg xmlns="http://www.w3.org/2000/svg" viewBox="0 0 1024 1024"><path d="M893.866 651.092c0-59.733-17.067-110.933-85.333-123.733-4.267 0-8.533-4.267-12.8-4.267-17.067-4.267-55.467-17.067-76.8-59.733-12.8-21.333-25.6-51.2-34.133-89.6l-34.133-157.867v-12.8c-12.8-64-72.533-110.933-136.533-110.933s-123.733 46.933-140.8 110.933v8.534l-17.067 76.8v4.267l-12.8 64c-12.8 38.4-21.333 68.267-34.133 93.867-25.6 51.2-59.733 68.267-81.067 72.533-4.267 0-8.533 4.267-12.8 4.267-68.267 17.067-85.333 68.267-85.333 123.733v4.267c0 42.667-34.133 46.933-46.933 51.2v68.267c46.933 0 119.467-34.133 123.733-123.733v-8.533-4.267c0-8.533 8.533-34.133 59.733-38.4l-4.267 345.6h507.733l-8.533-345.6c46.933 4.267 55.467 25.6 55.467 38.4v12.8c0 89.6 72.533 123.733 123.733 123.733v-76.8c-12.8 0-46.933-4.267-46.933-46.933zm-473.6-268.8l21.333-153.6c4.267-34.133 38.4-59.733 72.533-59.733 38.4 0 68.267 25.6 72.533 59.733l21.333 153.6H420.265z"/></svg>