<svg xmlns="http://www.w3.org/2000/svg" viewBox="0 0 1029 1024"><path d="M812.929 177.073H634.625c-18.378-49.6-65.28-84.311-120.292-84.311s-101.914 34.71-120.002 83.425l-178.594.887c-47.118 0-85.312 38.196-85.312 85.312v597.192c0 47.118 38.196 85.312 85.312 85.312h597.192c47.118 0 85.312-38.196 85.312-85.312V262.386c0-47.118-38.196-85.312-85.312-85.312zm-298.596 0c23.557 0 42.656 19.099 42.656 42.656s-19.099 42.656-42.656 42.656-42.656-19.099-42.656-42.656 19.099-42.656 42.656-42.656zm85.312 597.192H301.049v-85.312h298.596zm127.972-170.628H301.05v-85.312h426.567zm0-170.624H301.05v-85.312h426.567z"/></svg>