<svg xmlns="http://www.w3.org/2000/svg" viewBox="0 0 1024 1024"><path d="M665.599 288.427V732.16c0 85.333-68.267 153.6-153.6 153.6s-153.6-68.267-153.6-153.6v-486.4c0-51.2 42.667-93.867 98.133-93.867s93.867 42.667 93.867 93.867v409.6c0 21.333-17.067 38.4-38.4 38.4s-38.4-17.067-38.4-38.4V288.427h-64V655.36c0 51.2 42.667 93.867 93.867 93.867s93.867-42.667 93.867-93.867v-409.6c4.267-85.333-64-153.6-149.333-153.6s-149.333 68.267-149.333 153.6v486.4c0 119.467 93.867 213.333 213.333 213.333s213.333-93.867 213.333-213.333V288.427H665.6z"/></svg>