<svg xmlns="http://www.w3.org/2000/svg" viewBox="0 0 1024 1024"><path d="M622.508 348.159L512 458.667 401.492 348.159l-60.16 60.16L451.84 518.827 341.332 629.335l60.16 60.16L512 578.987l110.508 110.508 60.16-60.16L572.16 518.827l110.508-110.508zM512 92.159c-235.642 0-426.668 191.026-426.668 426.668S276.358 945.495 512 945.495s426.668-191.026 426.668-426.668S747.642 92.159 512 92.159zm0 768c-188.512 0-341.332-152.82-341.332-341.332S323.488 177.495 512 177.495s341.332 152.82 341.332 341.332S700.512 860.159 512 860.159z"/></svg>