<svg xmlns="http://www.w3.org/2000/svg" viewBox="0 0 1024 1024"><path d="M115.2 860.159H85.337V177.495H115.2zm29.865 0h-12.8V177.495h17.063l-4.263 682.664zm42.671 0h-12.8V177.495h17.063l-4.263 682.664zm76.8 0h-12.8V177.495h17.063l-4.263 682.664zm72.528 0h-29.863V177.495h29.863zm64.001 0h-17.063V177.495h17.063zm29.872 0h-17.063V177.495h17.063zm29.863 0h-17.063V177.495H460.8zm72.535 0h-29.863V177.495h29.863zm72.528 0H576V177.495h29.863zm64.001 0h-29.863V177.495h29.863zm59.736 0h-29.863V177.495H729.6zm42.664 0h-29.863V177.495h29.863zm89.6 0h-46.935V177.495h46.935zm29.871 0h-17.063V177.495h17.063zm46.929 0h-29.863V177.495h29.863z"/></svg>