<svg xmlns="http://www.w3.org/2000/svg" viewBox="0 0 1024 1024"><path d="M832 800.427l-520.533-550.4-106.667-115.2-55.467 55.467L268.8 314.027c-21.333 46.933-34.133 98.133-34.133 149.333v217.6l-85.333 89.6v42.667h584.533L819.2 898.56l55.467-55.467L832 800.426zM490.667 945.494c46.933 0 85.333-38.4 85.333-85.333H405.333c0 46.933 38.4 85.333 85.333 85.333zm256-320V467.627c0-136.533-68.267-247.467-192-277.333v-34.133c0-34.133-29.867-64-64-64s-64 29.867-64 64v29.867c-4.267 0-12.8 4.267-17.067 4.267s-8.533 4.267-12.8 4.267c-12.8 8.533-21.333 12.8-29.867 17.067l379.733 413.867z"/></svg>