<svg xmlns="http://www.w3.org/2000/svg" viewBox="0 0 1035 1024"><path d="M922.551 499.093v-.169c0-25.424-19.516-46.286-44.382-48.43l-.18-.011c-9.089.908-17.352 3.806-24.554 8.245l.249-.142-194.452 109.381H537.699c-12.152 0-20.257-8.101-28.357-20.257-2.645-4.925-4.198-10.774-4.198-16.986 0-1.149.052-2.289.159-3.413.952-17.003 12.442-31.23 28.061-36.235l113.716-.08c24.924-1.358 45.082-20.125 48.58-44.284l.032-4.33c-.908-9.089-3.806-17.352-8.245-24.554a65.275 65.275 0 0 0-44.268-20.407l-291.83-.008c-14.438.041-27.415 6.265-36.423 16.165l-.035.04-129.633 121.533-72.919 69.273v319.631l72.919-60.767 202.553-174.195c14.454-14.742 34.475-23.981 56.653-24.304l235.024-.001 218.757-121.533c14.652-8.044 24.417-23.369 24.417-40.973 0-1.12-.04-2.232-.118-3.334zM492.326 306.262c-9.493-7.484-15.532-18.986-15.532-31.894 0-1.18.049-2.346.148-3.502l-.009-7.142h48.614v9.317c-.408 2.801-.644 6.031-.644 9.317s.236 6.519.688 9.678c-.044 2.068 3.2 3.284 7.248 3.284a9.695 9.695 0 0 0 7.303-2.441 10.477 10.477 0 0 0 2.46-6.772 9.81 9.81 0 0 0-.044-.959c.042-.699.065-1.567.065-2.44a51.03 51.03 0 0 0-2.593-16.112c-3.757-5.062-9.165-9.164-15.471-11.322q-22.502-11.006-30.607-15.867c-5.61-3.695-10.223-8.442-13.664-13.989-2.338-4.886-3.638-10.389-3.638-16.195 0-1.643.104-3.258.306-4.845-.04-.23-.049-.719-.049-1.212 0-10.1 4.739-19.096 12.115-24.878 10.456-7.039 23.146-11.369 36.822-11.798l.108-12.156h22.281v12.152c12.703.505 24.304 4.836 33.787 11.862a32.347 32.347 0 0 1 11.175 25.871c-.019.442.003 3.987.003 6.824h-48.614v-6.076c.423-1.947.663-4.188.663-6.483s-.24-4.532-.7-6.693c-1.282-1.811-3.53-3.125-6.088-3.125-.411 0-.816.033-1.208.101a2.192 2.192 0 0 0-.275-.01 8.085 8.085 0 0 0-6.153 2.831 12.043 12.043 0 0 0-2.101 6.829c0 .451.026.899.072 1.339-.06.419-.089.967-.089 1.524 0 4.16 1.74 7.911 4.535 10.571 7.465 4.791 16.116 9.397 25.134 13.313 11.047 4.89 19.289 9.353 27.17 14.333 3.884 2.878 7.711 7.224 10.4 12.263 2.935 5.776 4.596 12.36 4.596 19.334 0 .677-.015 1.355-.047 2.023.043.567.066 1.342.066 2.122 0 11.558-4.838 21.985-12.603 29.363-8.329 6.376-18.579 10.613-29.746 11.745l202.305.021c-5.868-113.201-99.087-202.769-213.224-202.769-3.372 0-6.726.079-10.058.234-2.388-.155-5.744-.234-9.114-.234-114.136 0-207.355 89.568-213.202 202.248l202.533.522c-9.511-1.722-17.966-5.269-25.348-10.274z"/></svg>