<svg xmlns="http://www.w3.org/2000/svg" viewBox="0 0 1029 1024"><path d="M597.533 518.828l98.133 98.133c12.8-29.867 17.067-64 17.067-98.133s-4.267-68.267-17.067-98.133l-98.133 98.133zm226.133-226.133l-51.2 55.467c25.6 55.467 42.667 110.933 42.667 170.667s-12.8 119.467-42.667 170.667l51.2 51.2c85.333-136.533 85.333-311.467 0-448zm-162.133 42.666l-243.2-243.2h-42.667v324.267L179.399 220.161l-59.733 59.733 238.933 238.933L119.666 757.76l59.733 59.733 196.267-196.267v324.267h42.667l243.2-243.2-183.467-183.467 183.467-183.467zm-200.534-81.066l81.067 81.067-81.067 81.067V254.296zm81.067 448l-81.067 81.067V621.229l81.067 81.067z"/></svg>