<svg xmlns="http://www.w3.org/2000/svg" viewBox="0 0 1024 1024"><path d="M298.667 518.828l-85.333-85.333-85.333 85.333 85.333 85.333 85.333-85.333zM755.2 335.361L512 92.161h-42.667v324.267L273.066 220.161l-59.733 59.733 238.933 238.933L213.333 757.76l59.733 59.733 196.267-196.267v324.267H512l243.2-243.2-183.467-183.467L755.2 335.359zm-200.533-81.066l81.067 81.067-81.067 81.067V254.296zm81.066 448l-81.067 81.067V621.229l81.067 81.067zm174.934-268.8l-85.333 85.333 85.333 85.333L896 518.828l-85.333-85.333z"/></svg>