<svg xmlns="http://www.w3.org/2000/svg" viewBox="0 0 1028 1024"><path d="M172.94 672.427v158.72c64 53.332 112.212-6.828 112.212-61.012-5.568-55.127-51.73-97.793-107.855-97.793-1.531 0-3.057.03-4.574.094zm570.456 98.132c0 54.188 48.212 114.348 112.212 61.012V672.423a105.84 105.84 0 0 0-4.316-.087c-56.277 0-102.535 42.896-107.862 97.776zm-197.12 101.12V715.091l160.428-66.132-6.828 83.2 3.84-3.84c12.711-34.784 34.39-63.75 62.269-85.003l.451-56.225-252.16-94.292-251.732 94.292v55.468c28.33 21.585 50.009 50.55 62.307 84.046l4.253 5.13-6.828-83.2 160.428 66.132v156.588l-151.892-60.588c-3.631 18.628-9.546 35.2-17.55 50.508l201.015 84.32 200.532-85.332c-7.562-14.421-13.478-31.146-16.881-48.765zm-143.36-425.384v-55.468h-72.108v128l165.12-72.532h-93.012zm222.72 0h-93.012l165.12 72.532v-128h-72.108v55.468zM642.7 220.587c0 70.93-57.498 128.428-128.428 128.428s-128.428-57.498-128.428-128.428S443.342 92.159 514.272 92.159 642.7 149.657 642.7 220.587z"/></svg>