<svg xmlns="http://www.w3.org/2000/svg" viewBox="0 0 1024 1024"><path d="M512 305.494V134.827H85.333v768h853.333V305.494H511.999zm-256 512h-85.333v-85.333H256v85.333zm0-170.667h-85.333v-85.333H256v85.333zm0-170.667h-85.333v-85.333H256v85.333zm0-170.666h-85.333v-85.333H256v85.333zm170.667 512h-85.333v-85.333h85.333v85.333zm0-170.667h-85.333v-85.333h85.333v85.333zm0-170.667h-85.333v-85.333h85.333v85.333zm0-170.666h-85.333v-85.333h85.333v85.333zm426.666 512H512v-85.333h85.333v-85.333H512v-85.333h85.333v-85.333H512v-85.333h341.333v426.667zM768 476.16h-85.333v85.333H768V476.16zm0 170.667h-85.333v85.333H768v-85.333z"/></svg>