<svg xmlns="http://www.w3.org/2000/svg" viewBox="0 0 1026 1024"><path d="M807.563 92.16h-614.4v853.333h640V92.16h-25.6zM619.83 463.36h-72.533v-68.267h72.533v68.267zm-145.067 0h-68.267v-68.267h72.533l-4.267 68.267zm-209.067 68.267h72.533v68.267h-72.533v-68.267zm140.8 0h72.533v68.267h-72.533v-68.267zm-72.533-68.267h-68.267v-68.267h72.533v68.267zm-68.267 209.067h72.533v68.267h-72.533v-68.267zm140.8 0h72.533v68.267h-72.533v-68.267zm209.067 68.267H543.03v-68.267h72.533v68.267zm-140.8 136.533h-68.267V808.96h72.533c-4.267 0-4.267 68.267-4.267 68.267zm72.533-68.267h72.533v68.267h-72.533V808.96zm68.267-209.066H543.03v-68.267h72.533v68.267zM760.63 326.827H265.697v-166.4h499.2v166.4zM265.696 808.96h72.533v68.267h-72.533V808.96zm422.4-277.333h72.533v345.6h-72.533v-345.6z"/></svg>