<svg xmlns="http://www.w3.org/2000/svg" viewBox="0 0 1024 1024"><path d="M512 698.027c76.8 0 136.533-59.733 136.533-136.533S588.8 424.961 512 424.961s-136.533 59.733-136.533 136.533S435.2 698.027 512 698.027zm-128-563.2l-76.8 85.333H170.667c-46.933 0-85.333 38.4-85.333 85.333v512c0 46.933 38.4 85.333 85.333 85.333h682.667c46.933 0 85.333-38.4 85.333-85.333v-512c0-46.933-38.4-85.333-85.333-85.333H716.801l-76.8-85.333h-256zm128 640c-119.467 0-213.333-93.867-213.333-213.333S392.534 348.161 512 348.161s213.333 93.867 213.333 213.333S631.466 774.827 512 774.827z"/></svg>