<svg xmlns="http://www.w3.org/2000/svg" viewBox="0 0 1024 1024"><path d="M938.665 367.361c0 42.667-34.133 76.8-76.8 76.8-8.533 0-12.8 0-21.333-4.267L703.999 576.427c0 8.533 4.267 12.8 4.267 21.333 0 42.667-34.133 76.8-76.8 76.8s-76.8-34.133-76.8-76.8c0-8.533 0-12.8 4.267-21.333l-102.4-98.133c-12.8 4.267-25.6 4.267-38.4 0L243.2 653.227c0 8.533 4.267 12.8 4.267 21.333 0 42.667-34.133 76.8-76.8 76.8s-85.333-34.133-85.333-76.8 34.133-76.8 76.8-76.8c8.533 0 12.8 0 21.333 4.267L358.4 427.094c0-8.533-4.267-12.8-4.267-21.333 0-42.667 34.133-76.8 76.8-76.8S512 363.094 512 405.761c0 8.533 0 12.8-4.267 21.333l98.133 98.133c12.8-4.267 25.6-4.267 38.4 0l136.533-136.533c0-8.533-4.267-12.8-4.267-21.333 0-42.667 34.133-76.8 76.8-76.8 51.2-4.267 85.333 34.133 85.333 76.8z"/></svg>