<svg xmlns="http://www.w3.org/2000/svg" viewBox="0 0 1024 1024"><path d="M550.764 441.581l-75.981.389-1.55 77.145h-77.531l-2.714 77.531h80.245v77.531h77.531v-77.531h77.531v-77.531h-77.531v-77.531zm271.362-90.323V243.875c-2.123-41.118-35.979-73.656-77.434-73.656H621.317c-16.701-45.077-59.328-76.62-109.319-76.62s-92.617 31.543-109.06 75.814l-123.537.806h-.096c-41.455 0-75.315 32.538-77.427 73.466l-.009 107.569-38.765 12.792v.212c0 76.931 14.221 150.543 40.174 218.35l-1.407 250.504c2.123 41.118 35.979 73.656 77.434 73.656H454.238c16.627 12.787 35.481 25.586 55.072 37.28 24.969-11.69 43.822-24.49 61.855-38.312l173.431 1.032h.096c41.455 0 75.315-32.538 77.427-73.466l.009-254.882c24.547-63.617 38.765-137.229 38.765-214.164v-.226zm-155.062-64.739v-38.765h77.531v77.531L628.299 286.52zm-155.066-116.3c21.41 0 38.765 17.355 38.765 38.765s-17.355 38.765-38.765 38.765-38.765-17.355-38.765-38.765 17.355-38.765 38.765-38.765zm-232.597 77.535h77.531v38.765h38.765l-116.296 38.765zm0 581.49V726.515c26.914 38.235 55.183 71.795 86.073 102.742zm465.194 0h-86.059a774.06 774.06 0 0 0 84.44-100.31zm18.606-332.227l-2.325 8.528c-4.653 18.607-10.078 38.765-16.281 54.661-41.787 108.814-108.22 200.179-192.774 270.508-12.584 10.91-25.217 20.836-38.346 30.104-16.083-9.267-28.715-19.192-40.805-29.729-91.69-75.534-162.475-174.413-203.434-287.574-3.402-10.447-4.953-16.651-6.891-22.853s-4.653-17.056-6.978-25.584-2.325-10.467-3.489-15.506c-3.1-14.342-5.814-29.073-7.753-44.194l35.276-15.119c86.448-36.441 232.597-94.976 232.597-94.976s150.799 60.475 232.597 96.916l15.506 6.978 13.567 6.203c-2.548 23.627-6.23 44.596-11.167 65.075z"/></svg>