<svg xmlns="http://www.w3.org/2000/svg" viewBox="0 0 1024 1024"><path d="M859.733 134.827H160c-41.297.952-74.439 34.541-74.667 75.925s0 .022 0 .022v461.653l-.001.428c0 42.03 33.951 76.131 75.925 76.372H435.2v76.8h-78.933v76.8h311.467v-76.8h-76.8v-76.8h273.067c41.297-.952 74.439-34.541 74.667-75.925s0-.022 0-.022V211.627c-4.172-41.356-37.333-73.783-78.656-76.784zm0 537.6H160v-460.8h699.733zM451.413 541.44L344.32 433.493 451.413 326.4l-32.427-32.427-139.52 139.52 139.52 139.52zm120.747 0l107.52-107.947-107.093-106.24 32.427-32.427 139.52 138.667-139.52 139.52z"/></svg>