<svg xmlns="http://www.w3.org/2000/svg" viewBox="0 0 1039 1024"><path d="M836.206 560.695c1.842-12.414 2.998-26.91 3.197-41.634-.102-15.094-1.165-29.61-3.129-43.834l90.331-68.664c4.677-3.988 7.626-9.885 7.626-16.47 0-3.732-.949-7.247-2.614-10.31l-85.276-147.62c-3.724-6.558-10.661-10.91-18.613-10.91-2.904 0-5.67.58-8.192 1.63l-106.527 42.613c-20.782-16.287-44.505-30.333-69.953-41.098l-17.511-114.37c-1.488-10.156-10.139-17.869-20.591-17.869l-.219.001H434.08l-.209-.001c-10.452 0-19.106 7.71-20.578 17.754l-15.748 113.179c-27.488 11.738-51.19 25.77-72.759 42.43l-105.909-43.23c-2.443-1.09-5.29-1.724-8.29-1.724-7.923 0-14.81 4.43-18.323 10.947L107.143 379.36c-1.701 2.97-2.705 6.53-2.705 10.327 0 6.575 3.011 12.449 7.732 16.31l90.171 70.431c-1.772 12.653-2.836 27.355-2.931 42.287.121 14.994 1.183 29.509 3.13 43.739l-90.331 68.642c-4.677 3.988-7.626 9.885-7.626 16.47 0 3.732.949 7.247 2.614 10.31l85.276 147.62c3.724 6.558 10.661 10.91 18.613 10.91 2.904 0 5.67-.58 8.192-1.63l106.527-42.613c20.71 16.466 44.34 30.681 69.711 41.624l18.29 113.844c1.488 10.156 10.139 17.869 20.591 17.869l.219-.001h170.655l.209.001c10.452 0 19.106-7.71 20.578-17.754l16.28-113.179c27.488-11.738 51.19-25.77 72.759-42.43l105.909 43.23c2.443 1.09 5.29 1.724 8.29 1.724 7.923 0 14.81-4.43 18.323-10.947l83.253-147.845c1.61-2.95 2.558-6.464 2.558-10.196 0-6.587-2.949-12.483-7.594-16.446l-90.164-70.426zM519.141 667.359c-82.473 0-149.332-66.859-149.332-149.332s66.859-149.332 149.332-149.332 149.332 66.859 149.332 149.332c-.15 82.412-66.92 149.182-149.319 149.332z"/></svg>