<svg xmlns="http://www.w3.org/2000/svg" viewBox="0 0 1043 1024"><path d="M807.535 469.761v-51.2c0-25.6-21.333-46.933-42.667-46.933H619.801c-25.6 0-46.933 21.333-46.933 46.933v192c0 25.6 21.333 46.933 46.933 46.933h140.8c25.6 0 46.933-21.333 46.933-46.933V555.094h-72.533v25.6h-93.867V435.627h93.867v25.6h72.533zm-332.8 0v-51.2c0-25.6-21.333-46.933-46.933-46.933H282.735c-25.6 0-46.933 21.333-46.933 46.933v196.267c0 25.6 21.333 46.933 42.667 46.933h145.067c25.6 0 46.933-21.333 46.933-46.933v-51.2h-68.267v25.6h-93.867V444.161h93.867v25.6h72.533zm379.733-337.067c51.2 0 93.867 42.667 93.867 98.133v576c0 51.2-42.667 93.867-93.867 98.133h-665.6c-51.2-4.267-93.867-46.933-93.867-102.4V230.827c0-55.467 42.667-98.133 93.867-98.133h665.6z"/></svg>