<svg xmlns="http://www.w3.org/2000/svg" viewBox="0 0 1042 1024"><path d="M947.505 241.49h-85.334v42.667h42.667v85.334h42.667V241.489zm-128.001 0H734.17v42.667h85.334V241.49zm-128.002 0h-85.334v42.667h85.334V241.49zm-128.001 0h-85.334v42.667h85.334V241.49zm-128.002 0h-85.334v42.667h85.334V241.49zm-128.002 0h-85.334v42.667h85.334V241.49zm-128.002 0H94.161v128.002h42.667v-85.334h42.667v-42.667zm-42.667 170.669H94.161v85.334h42.667v-85.334zm0 128.002H94.161v85.334h42.667v-85.334zm0 128.001H94.161v128.002h85.334v-42.667h-42.667v-85.334zm170.669 85.335h-85.334v42.667h85.334v-42.667zm128.002 0h-85.334v42.667h85.334v-42.667zm128.002 0h-85.334v42.667h85.334v-42.667zm128.001 0h-85.334v42.667h85.334v-42.667zm128.002 0H734.17v42.667h85.334v-42.667zm128.001 0h-85.334v42.667h85.334v-42.667zm0-85.335h-42.667v85.334h42.667v-85.334zm0-128.001h-42.667v85.334h42.667v-85.334zm0-128.002h-42.667v85.334h42.667v-85.334zm-677.128-14.93c3.491-11.291 9.864-20.835 18.272-28.097l.076-.065c9.263-7.535 20.482-13.052 32.767-15.696l.514-.095c14.237-3.27 30.583-5.145 47.368-5.145 1.197 0 2.39.007 3.582.031l-.178-.004c.998-.019 2.178-.025 3.361-.025 16.803 0 33.164 1.877 48.889 5.428l-1.476-.28c12.799 2.75 24.006 8.262 33.43 15.905l-.15-.114c8.483 7.326 14.853 16.868 18.233 27.736l.112.424c3.547 11.729 5.591 25.204 5.591 39.163 0 1.231-.018 2.464-.046 3.686l.007-.18c.03 1.047.046 2.272.046 3.504 0 13.956-2.044 27.435-5.844 40.151l.254-.992c-3.491 11.291-9.864 20.835-18.272 28.097l-.076.065c-9.274 7.521-20.482 13.033-32.76 15.693l-.52.097c-14.25 3.27-30.61 5.143-47.415 5.143-1.18 0-2.36-.007-3.54-.029l.176.004c-1.011.02-2.204.026-3.401.026a221.41 221.41 0 0 1-48.848-5.428l1.476.28c-12.799-2.737-24.018-8.249-33.425-15.901l.145.111c-8.483-7.326-14.853-16.868-18.233-27.736l-.112-.424c-3.547-11.729-5.591-25.204-5.591-39.163 0-1.231.018-2.464.046-3.686l-.007.18c-.03-1.047-.046-2.272-.046-3.504 0-13.956 2.044-27.435 5.844-40.151l-.254.992zm79.787 68.694c.428 5.935 1.645 11.448 3.548 16.634l-.137-.423c1.269 3.599 3.856 6.467 7.17 8.067l.085.035c3.686 1.346 7.937 2.126 12.371 2.126s8.691-.776 12.63-2.204l-.257.085c3.396-1.645 5.983-4.505 7.222-8.008l.033-.098c1.751-4.761 2.97-10.276 3.4-16.008l.012-.208v-26.452-26.878c-.436-5.935-1.649-11.45-3.549-16.634l.137.423c-1.269-3.599-3.856-6.467-7.17-8.067l-.085-.035c-3.686-1.359-7.937-2.152-12.371-2.152s-8.691.787-12.63 2.23l.254-.085c-3.396 1.645-5.983 4.505-7.222 8.008l-.033.098c-1.775 4.765-2.992 10.279-3.4 16.023l-.01.192v53.33zm317.445-117.765l-218.03 341.338h-75.947l218.03-341.338zM566.484 557.652c3.517-11.282 9.886-20.82 18.272-28.099l.073-.063c9.276-7.508 20.486-13.02 32.754-15.691l.527-.098c14.224-3.27 30.557-5.146 47.327-5.146 1.214 0 2.424.007 3.63.032l-.182-.004c1.011-.02 2.204-.026 3.401-.026a221.41 221.41 0 0 1 48.848 5.428l-1.476-.28c12.799 2.75 24.006 8.262 33.43 15.905l-.15-.114c8.463 7.339 14.832 16.88 18.233 27.732l.115.429c3.598 12.798 5.669 27.489 5.669 42.667s-2.071 29.869-5.94 43.817l.272-1.151c-3.491 11.291-9.864 20.835-18.272 28.097l-.076.065a71.7 71.7 0 0 1-32.839 15.295l-.441.068c-14.047 2.737-30.199 4.297-46.716 4.297-1.424 0-2.852-.011-4.271-.033l.215.005a257.29 257.29 0 0 1-52.372-4.523l1.602.254c-12.812-2.364-24.081-7.78-33.404-15.463l.124.098c-8.483-7.326-14.853-16.868-18.233-27.736l-.112-.424c-3.551-11.694-5.597-25.135-5.597-39.046 0-1.271.02-2.542.05-3.803l-.007.189a128.778 128.778 0 0 1-.086-4.96c0-13.423 1.905-26.41 5.454-38.689l-.241.982zm79.365 68.693c.449 5.939 1.658 11.454 3.551 16.646l-.137-.431c1.229 3.623 3.829 6.507 7.17 8.07l.085.033c3.686 1.359 7.937 2.152 12.371 2.152s8.691-.787 12.63-2.23l-.254.085c3.396-1.645 5.983-4.505 7.222-8.008l.033-.098c1.751-4.761 2.97-10.276 3.4-16.008l.012-.208v-26.452-26.878c-.436-5.935-1.649-11.45-3.549-16.634l.137.423c-1.269-3.599-3.856-6.467-7.17-8.067l-.085-.035c-3.686-1.359-7.937-2.152-12.371-2.152s-8.691.787-12.63 2.23l.254-.085c-3.426 1.604-6.026 4.479-7.222 8.013l-.03.098c-1.762 4.765-2.981 10.277-3.4 16.01l-.011.202v26.878c0 11.089-.852 19.624 0 26.452z"/></svg>