<svg xmlns="http://www.w3.org/2000/svg" viewBox="0 0 1024 1024"><path d="M341.332 621.227h64v34.132h-64v-34.132zm93.868 0h98.132v34.132H435.2v-34.132zm311.468-281.6c-7.133-7.883-17.404-12.813-28.825-12.813-.368 0-.73.006-1.095.014l-401.012-.001c-.31-.01-.675-.013-1.043-.013-11.421 0-21.69 4.93-28.794 12.781-7.515 7.818-12.294 18.253-12.827 29.799l-.004 307.301c0 23.565 19.103 42.668 42.668 42.668h401.068c23.565 0 42.668-19.103 42.668-42.668v-307.2c-.534-11.647-5.313-22.082-12.813-29.882zm-21.336 341.332a4.268 4.268 0 0 1-4.268 4.268l-4.268 4.268H315.728a4.268 4.268 0 0 1-4.268-4.268l-4.268-4.268v-153.6h418.132zm0-256H307.2v-55.468a4.268 4.268 0 0 1 4.268-4.268l4.268-4.268h401.068a4.268 4.268 0 0 1 4.268 4.268l4.268 4.268zM512 92.159c-235.642 0-426.668 191.026-426.668 426.668S276.358 945.495 512 945.495s426.668-191.026 426.668-426.668S747.642 92.159 512 92.159zm4.268 768c-1.27.016-2.768.028-4.268.028-188.512 0-341.332-152.82-341.332-341.332S323.488 177.523 512 177.523c188.505 0 341.318 152.806 341.332 341.306.007.764.01 1.665.01 2.567 0 186.503-150.71 337.807-336.985 338.77z"/></svg>