<svg xmlns="http://www.w3.org/2000/svg" viewBox="0 0 1024 1024"><path d="M844.799 373.759l38.4-51.2h-486.4c-4.267 0-8.533 4.267-12.8 4.267-4.267 4.267-4.267 4.267-4.267 12.8v51.2h-42.667c-4.267 0-12.8 0-17.067 4.267-4.267 0-8.533 0-8.533 4.267l-55.467 51.2c-4.267 4.267-4.267 4.267-4.267 8.533-4.267 4.267-4.267 4.267-4.267 8.533-4.267 4.267-4.267 4.267-4.267 8.533V587.091H213.33l34.133 34.133h34.133c0 17.067 4.267 34.133 17.067 46.933s29.867 21.333 46.933 21.333 34.133-4.267 46.933-17.067 17.067-29.867 17.067-46.933h102.4c0 17.067 4.267 34.133 17.067 46.933s29.867 17.067 46.933 17.067c17.067 0 34.133-4.267 46.933-17.067s17.067-29.867 17.067-46.933c0-17.067-4.267-25.6-4.267-25.6h29.867l34.133-46.933h-59.733l17.067-25.6h59.733l34.133-42.667h-68.267l25.6-34.133h68.267l34.133-42.667h-81.067l25.6-38.4h89.6zm-567.467 115.2v-8.533c0-4.267 0-4.267 4.267-4.267l51.2-51.2 4.267-4.267h42.667v68.267h-102.4zm93.867 157.867c-8.533 8.533-12.8 12.8-25.6 12.8-8.533 0-17.067-4.267-25.6-12.8s-12.8-12.8-12.8-25.6c0-8.533 4.267-17.067 12.8-25.6s12.8-12.8 25.6-12.8c8.533 0 17.067 4.267 25.6 12.8s8.533 12.8 8.533 25.6-4.267 21.333-8.533 25.6zm234.667 0c-8.533 8.533-12.8 12.8-25.6 12.8-8.533 0-17.067-4.267-25.6-12.8s-12.8-12.8-12.8-25.6c0-8.533 4.267-17.067 12.8-25.6s12.8-12.8 25.6-12.8c8.533 0 17.067 4.267 25.6 12.8s12.8 12.8 12.8 25.6c-4.267 12.8-4.267 21.333-12.8 25.6zm307.2-268.8l-68.267 89.6c4.267 17.067 4.267 34.133 4.267 51.2 0 187.733-153.6 341.333-341.333 341.333S166.4 706.559 166.4 518.826 320 177.493 507.733 177.493c89.6 0 170.667 34.133 230.4 89.6h115.2C776.533 160.426 652.8 92.16 512 92.16c-234.667 0-426.667 192-426.667 426.667s192 426.667 426.667 426.667 426.667-192 426.667-426.667c0-51.2-8.533-93.867-25.6-140.8z"/></svg>