<svg xmlns="http://www.w3.org/2000/svg" viewBox="0 0 1024 1024"><path d="M512 92.159c-235.642 0-426.668 191.026-426.668 426.668S276.358 945.495 512 945.495h.048c39.272 0 71.11-31.837 71.11-71.11 0-18.47-7.041-35.293-18.587-47.936-11.287-12.429-18.226-29.082-18.226-47.355 0-39.01 31.626-70.636 70.636-70.636.258 0 .515.002.772.005h83.87c130.91 0 237.036-106.126 237.036-237.036 0-209.541-189.63-379.259-426.668-379.259zM251.259 518.827c-39.272 0-71.11-31.837-71.11-71.11s31.837-71.11 71.11-71.11c39.272 0 71.11 31.837 71.11 71.11s-31.837 71.11-71.11 71.11zm142.223-189.63c-39.272 0-71.11-31.837-71.11-71.11s31.837-71.11 71.11-71.11c39.272 0 71.11 31.837 71.11 71.11s-31.837 71.11-71.11 71.11zm237.036 0c-39.272 0-71.11-31.837-71.11-71.11s31.837-71.11 71.11-71.11c39.272 0 71.11 31.837 71.11 71.11s-31.837 71.11-71.11 71.11zm142.223 189.63c-39.272 0-71.11-31.837-71.11-71.11s31.837-71.11 71.11-71.11c39.272 0 71.11 31.837 71.11 71.11s-31.837 71.11-71.11 71.11z"/></svg>