<svg xmlns="http://www.w3.org/2000/svg" viewBox="0 0 1024 1024"><path d="M625.92 362.239c0 23.565-19.103 42.668-42.668 42.668s-42.668-19.103-42.668-42.668c0-23.565 19.103-42.668 42.668-42.668s42.668 19.103 42.668 42.668zm-227.84 113.92c0 23.565-19.103 42.668-42.668 42.668s-42.668-19.103-42.668-42.668c0-23.565 19.103-42.668 42.668-42.668s42.668 19.103 42.668 42.668zm85.332-113.92c0 23.565-19.103 42.668-42.668 42.668s-42.668-19.103-42.668-42.668c0-23.565 19.103-42.668 42.668-42.668s42.668 19.103 42.668 42.668zm227.84 113.92c0 23.565-19.103 42.668-42.668 42.668s-42.668-19.103-42.668-42.668c0-23.565 19.103-42.668 42.668-42.668s42.668 19.103 42.668 42.668zM512 92.159c-235.642 0-426.668 191.026-426.668 426.668S276.358 945.495 512 945.495s426.668-191.026 426.668-426.668S747.642 92.159 512 92.159zm113.92 540.588h-50.348c-23.541.03-42.611 19.122-42.611 42.668a42.516 42.516 0 0 0 10.652 28.208c6.779 7.488 10.951 17.527 10.951 28.54 0 23.53-19.046 42.61-42.561 42.668-141.39 0-256.007-114.614-256.007-256s114.614-256 256-256c141.228 0 256 101.972 256 227.412l.001.428c0 78.47-63.61 142.08-142.08 142.08h-.001z"/></svg>