<svg xmlns="http://www.w3.org/2000/svg" viewBox="0 0 1024 1024"><path d="M512 92.159c-235.642 0-426.668 191.026-426.668 426.668S276.358 945.495 512 945.495s426.668-191.026 426.668-426.668S747.642 92.159 512 92.159zm0 768c-188.512 0-341.332-152.82-341.332-341.332S323.488 177.495 512 177.495s341.332 152.82 341.332 341.332S700.512 860.159 512 860.159zm0-597.332c-141.386 0-256 114.614-256 256s114.614 256 256 256c23.521-.057 42.567-19.137 42.567-42.668 0-11.013-4.172-21.052-11.026-28.624-6.557-7.436-10.58-17.31-10.58-28.124 0-23.546 19.07-42.635 42.61-42.668h50.351c78.47 0 142.08-63.61 142.08-142.08l-.001-.45c0-125.416-114.772-227.391-256-227.391zm-156.588 256c-23.565 0-42.668-19.103-42.668-42.668s19.103-42.668 42.668-42.668c23.565 0 42.668 19.103 42.668 42.668s-19.103 42.668-42.668 42.668zm85.336-113.92c-23.565 0-42.668-19.103-42.668-42.668s19.103-42.668 42.668-42.668c23.565 0 42.668 19.103 42.668 42.668s-19.103 42.668-42.668 42.668zm142.08 0c-23.565 0-42.668-19.103-42.668-42.668s19.103-42.668 42.668-42.668c23.565 0 42.668 19.103 42.668 42.668v.003c0 23.413-18.86 42.424-42.217 42.665zm85.332 113.92c-23.565 0-42.668-19.103-42.668-42.668s19.103-42.668 42.668-42.668c23.565 0 42.668 19.103 42.668 42.668v.003c0 23.413-18.86 42.424-42.217 42.665z"/></svg>