<svg xmlns="http://www.w3.org/2000/svg" viewBox="0 0 1024 1024"><path d="M834.133 495.36H774.4V333.227c0-42.667-34.133-81.067-81.067-81.067H531.2v-59.733c0-55.467-46.933-102.4-102.4-102.4s-102.4 46.933-102.4 102.4v59.733H164.267c-46.933 0-81.067 34.133-81.067 81.067v153.6h59.733c59.733 0 110.933 51.2 110.933 110.933s-51.2 110.933-110.933 110.933H83.2V866.56c0 42.667 34.133 81.067 81.067 81.067h157.867v-59.733c0-59.733 51.2-110.933 110.933-110.933S544 828.161 544 887.894v55.467h153.6c42.667 0 81.067-34.133 81.067-81.067V700.161H838.4c55.467 0 102.4-46.933 102.4-102.4s-51.2-102.4-106.667-102.4z"/></svg>