<svg xmlns="http://www.w3.org/2000/svg" viewBox="0 0 1024 1024"><path d="M667.468 92.159H160.8v84.532h157.332v67.732H92.264v84.532h544v-84.532h-232.8v-67.732h264.011c102.344 0 185.451 82.362 186.652 184.419l.001 584.381h84.532V361.223c-.909-148.795-121.739-269.069-270.662-269.069l-.569.001zm-580.536 465.6c4.55 29.771 29.975 52.314 60.668 52.314s56.116-22.543 60.624-51.972c11.51-47.01-38.89-107.01-60.756-149.674-21.6 42.4-72 102.668-60.532 149.332zm0 281.068c4.55 29.771 29.975 52.314 60.668 52.314s56.116-22.543 60.624-51.972c11.51-47.01-38.89-107.01-60.756-149.674-21.6 42.668-72 103.2-60.532 149.332zm426.668-281.6c4.55 29.771 29.975 52.314 60.668 52.314s56.116-22.543 60.624-51.972c11.51-47.01-38.89-107.01-60.49-149.674-21.868 42.932-72.268 103.2-60.8 149.868zm0 281.6c4.55 29.771 29.975 52.314 60.668 52.314s56.116-22.543 60.624-51.972c11.51-47.01-38.89-107.01-60.49-149.674-21.868 42.668-72.268 103.2-60.8 149.332zM298.668 711.359c4.55 29.771 29.975 52.314 60.668 52.314s56.116-22.543 60.624-51.972c11.244-47.01-38.89-107.01-60.756-149.674-22.932 42.4-73.332 102.668-60.532 149.332z"/></svg>