<svg xmlns="http://www.w3.org/2000/svg" viewBox="0 0 1024 1024"><path d="M482.132 373.759v-17.068h-25.6v17.068c-2.21-.326-4.766-.51-7.362-.51-15.676 0-29.772 6.764-39.53 17.531-10.671 9.177-17.367 22.636-17.367 37.659 0 1.78.093 3.537.277 5.27.867 12.318 3.919 23.93 8.77 34.545a96.073 96.073 0 0 0 16.753 20.654c8.59 8.586 21.39 12.85 38.456 25.65 8.532 8.532 12.8 8.532 17.068 17.068 2.895 6.987 4.577 15.099 4.577 23.606 0 2.206-.112 4.385-.332 6.53.023 3.997.023 3.997-4.245 8.265a14.874 14.874 0 0 1-8.452 4.257c-4.348.01-8.612.01-8.612-4.257s-4.268-12.8-4.268-29.868v-17.068h-59.732v12.8a80.884 80.884 0 0 0-.1 4.132c0 19.367 6.45 37.225 17.321 51.546 10.432 8.461 23.481 14.52 37.79 16.794l.456 25.66h25.6v-21.332c18.51-.894 34.99-8.894 46.91-21.31 7.962-9.279 12.794-21.403 12.794-34.652 0-7.528-1.559-14.69-4.37-21.182.428-2.121.594-4.976.594-7.871 0-9.311-1.734-18.22-4.898-26.416-1.54-8.168-6.14-15.55-12.564-20.78-8.51-8.635-18.383-15.781-29.305-21.11-13.737-7.174-24.905-14.25-35.457-22.106-1.783-4.486-3.33-10.321-3.57-16.491a17.537 17.537 0 0 1-.115-1.968c0-4.236 1.67-8.084 4.386-10.919 4.262.007 4.262-4.261 8.53-4.261s8.532 0 8.532 4.268 4.268 8.532 4.268 21.332v8.532h64v-8.532c.01-.426.016-.927.016-1.429a59.497 59.497 0 0 0-12.91-37.095c-4.171-8.41-21.239-12.676-38.307-16.944zM512 92.159c-235.642 0-426.668 191.026-426.668 426.668S276.358 945.495 512 945.495s426.668-191.026 426.668-426.668S747.642 92.159 512 92.159zm251.732 576c0 37.703-30.565 68.268-68.268 68.268s-68.268-30.565-68.268-68.268V535.891h-38.4v200.532H324.264v-422.4c.47-28.086 23.113-50.73 51.154-51.199l166.446-.001c28.086.47 50.73 23.113 51.199 51.154l.001 187.778h25.6c28.086.47 50.73 23.113 51.199 51.154l.001 119.51c-.148.968-.23 2.082-.23 3.216 0 12.49 10.125 22.612 22.612 22.612 1.134 0 2.25-.084 3.34-.246 13.571-1.033 24.429-11.89 25.47-25.49l.007-192.093c-8.532 0-17.068 4.268-25.6 4.268-.254.004-.556.007-.859.007-37.23 0-67.412-30.182-67.412-67.412 0-.302.002-.604.007-.905 1.575-26.975 18.55-49.672 42.21-59.52l-55.01-51.369 29.868-29.868 98.132 98.132c11.676 10.853 19.509 25.708 21.308 42.368zm-68.264-273.064a21.732 21.732 0 0 0-3.216-.23c-12.49 0-22.612 10.125-22.612 22.612 0 1.134.084 2.25.246 3.34-.014 14.014 11.448 25.476 25.586 25.476s25.6-11.462 25.6-25.6c0-14.138-11.462-25.6-25.6-25.6z"/></svg>