<svg xmlns="http://www.w3.org/2000/svg" viewBox="0 0 1024 1024"><path d="M512 92.159c-235.642 0-426.668 191.026-426.668 426.668S276.358 945.495 512 945.495s426.668-191.026 426.668-426.668S747.642 92.159 512 92.159zm0 768c-188.512 0-341.332-152.82-341.332-341.332S323.488 177.495 512 177.495s341.332 152.82 341.332 341.332S700.512 860.159 512 860.159zm230.4-486.4l-98.132-98.132-29.868 29.868 55.468 51.2c-24.117 10.013-41.09 32.711-42.658 59.549-.011.441-.013.743-.013 1.046 0 37.23 30.182 67.412 67.412 67.412.302 0 .604-.002.905-.007 8.489.001 17.021-4.267 25.553-4.267v192c-1.05 13.695-11.905 24.55-25.507 25.593a23.574 23.574 0 0 1-3.31.235c-12.49 0-22.612-10.125-22.612-22.612 0-1.134.084-2.25.246-3.34l-.014-119.344c-.47-28.086-23.113-50.73-51.154-51.199l-25.646-.001V314.028c-.47-28.086-23.113-50.73-51.154-51.199l-166.446-.001c-28.086.47-50.73 23.113-51.199 51.154l-.001 422.446h264.532V535.896h38.4v132.268c0 37.703 30.565 68.268 68.268 68.268s68.268-30.565 68.268-68.268V416.432c-1.827-16.96-9.656-31.811-21.29-42.63zm-221.868 217.6c-11.942 12.438-28.425 20.438-46.772 21.329l-.16 21.339H448v-25.6c-14.766-2.334-27.811-8.393-38.543-17.179-10.573-13.995-17.026-31.854-17.026-51.221 0-1.453.036-2.899.11-4.334l-.01-12.598h59.732v17.068c0 17.068 0 25.6 4.268 29.868s4.268 4.268 8.532 4.268a14.92 14.92 0 0 0 8.531-4.267c4.269-4.269 4.269-4.269 4.269-8.533.198-1.877.31-4.056.31-6.262a62.987 62.987 0 0 0-4.73-24.026c-4.112-8.112-8.38-8.112-16.912-16.648-17.068-12.8-29.868-17.068-38.4-25.6a93.573 93.573 0 0 1-16.83-20.901c-4.83-10.423-7.887-22.031-8.75-34.248a53.596 53.596 0 0 1-.276-5.371c0-15.023 6.691-28.482 17.259-37.558 9.865-10.87 23.961-17.631 39.637-17.631 2.596 0 5.15.187 7.648.545l-.287-17.1h25.6v17.068c17.068 4.268 34.132 8.532 38.4 17.068 7.99 10.067 12.816 22.954 12.816 36.971 0 .502-.007 1.003-.018 1.502l.002 8.459h-64v-8.532c0-12.8 0-17.068-4.268-21.332s-4.268-4.268-8.532-4.268-4.268 4.268-8.532 4.268a15.73 15.73 0 0 0-4.38 10.912c0 .666.041 1.32.121 1.964a42.35 42.35 0 0 0 4.37 17.239 274.902 274.902 0 0 0 32.609 20.398c12.966 6.29 22.837 13.435 31.268 22.006 6.505 5.295 11.104 12.68 12.775 21.117 3.03 7.927 4.768 16.832 4.768 26.147 0 2.894-.169 5.75-.493 8.559 2.71 5.807 4.27 12.97 4.27 20.494 0 13.25-4.831 25.373-12.831 34.702zm174.936-145.064c-.259.01-.564.014-.87.014-13.669 0-24.748-11.079-24.748-24.748 0-.307.007-.61.016-.911a20.556 20.556 0 0 1-.23-3.171c0-12.49 10.125-22.612 22.612-22.612 1.134 0 2.25.084 3.34.246 14.014-.014 25.476 11.448 25.476 25.586s-11.462 25.6-25.6 25.6z"/></svg>