<svg xmlns="http://www.w3.org/2000/svg" viewBox="0 0 1024 1024"><path d="M862.034 290.56L691.367 115.627l-51.2 46.933 98.133 98.133c-59.733 21.333-89.6 89.6-68.267 153.6 17.067 46.933 59.733 76.8 106.667 76.8 17.067 0 29.867-4.267 46.933-8.533v341.333c0 25.6-21.333 46.933-46.933 46.933s-46.933-21.333-46.933-46.933V610.56c0-51.2-42.667-93.867-93.867-93.867h-46.933v-332.8c0-51.2-42.667-93.867-93.867-93.867H222.033c-51.2 0-93.867 42.667-93.867 93.867V943.36h465.067V589.227H661.5V828.16c0 64 51.2 119.467 115.2 119.467s115.2-51.2 115.2-119.467V375.893c4.267-34.133-8.533-64-29.867-85.333zM499.367 422.826H222.034V183.893h277.333v238.933zm281.6 0c-25.6 0-46.933-21.333-46.933-46.933s21.333-46.933 46.933-46.933 46.933 21.333 46.933 46.933-21.333 46.933-46.933 46.933z"/></svg>