<svg xmlns="http://www.w3.org/2000/svg" viewBox="0 0 1024 1024"><path d="M512 92.159c-235.642 0-426.668 191.026-426.668 426.668S276.358 945.495 512 945.495s426.668-191.026 426.668-426.668S747.642 92.159 512 92.159zm238.932 384c0 4.268 0 8.532-4.268 8.532-.568.07-1.222.112-1.888.112-4.236 0-8.084-1.67-10.919-4.386l-34.129-34.13-179.2 179.2a4.268 4.268 0 0 1-8.536 0l-68.268-68.268-119.468 119.468-55.468-55.468 166.4-166.4a4.268 4.268 0 0 1 8.536 0l68.268 68.268 136.532-136.532-34.132-34.132c-4.268 0-4.268-4.268-4.268-8.532s4.268-4.268 8.532-4.268h128c0 4.268 4.268 4.268 4.268 8.532z"/></svg>