<svg xmlns="http://www.w3.org/2000/svg" viewBox="0 0 1024 1024"><path d="M460.8 501.76l-72.533-89.6s68.267-68.267 110.933-106.667c46.933-46.933 128-46.933 162.133-8.533 25.6 29.867 21.333 85.333-25.6 115.2-76.8 46.933-98.133 25.6-174.933 89.6zm85.333 21.334c-64 46.933-72.533 81.067-136.533 123.733l55.467 102.4c64-34.133 89.6-42.667 136.533-68.267 59.733-29.867 85.333-102.4 59.733-145.067-17.067-34.133-72.533-46.933-115.2-12.8zM435.2 518.827l-72.533-81.067s-46.933 46.933-12.8 85.333c34.133 34.133 85.333-4.267 85.333-4.267zm-93.867 230.4c25.6 46.933 85.333 17.067 85.333 17.067l-51.2-93.867c0-4.267-51.2 29.867-34.133 76.8zM512 92.16c-234.667 0-426.667 192-426.667 426.667s192 426.667 426.667 426.667 426.667-192 426.667-426.667S746.667 92.16 512 92.16zm0 768c-187.733 0-341.333-153.6-341.333-341.333S324.267 177.494 512 177.494s341.333 153.6 341.333 341.333S699.733 860.16 512 860.16z"/></svg>