<svg xmlns="http://www.w3.org/2000/svg" viewBox="0 0 1024 1024"><path d="M512 92.16c-234.667 0-426.667 192-426.667 426.667s192 426.667 426.667 426.667 426.667-192 426.667-426.667S746.667 92.16 512 92.16zm42.667 725.334h-85.333v-85.333h85.333v85.333zm89.6-332.8l-38.4 38.4c-34.133 34.133-51.2 59.733-51.2 123.733h-85.333v-21.333c0-46.933 17.067-89.6 51.2-119.467l51.2-51.2c17.067-17.067 25.6-38.4 25.6-64 0-46.933-38.4-85.333-85.333-85.333s-85.333 38.4-85.333 85.333h-85.333c0-93.867 76.8-170.667 170.667-170.667s170.667 76.8 170.667 170.667c0 38.4-17.067 72.533-38.4 93.867z"/></svg>