<svg xmlns="http://www.w3.org/2000/svg" viewBox="0 0 1024 1024"><path d="M469.333 774.827h85.333v-85.333h-85.333v85.333zM512 92.16c-234.667 0-426.667 192-426.667 426.667s192 426.667 426.667 426.667 426.667-192 426.667-426.667S746.667 92.16 512 92.16zm0 768c-187.733 0-341.333-153.6-341.333-341.333S324.267 177.494 512 177.494s341.333 153.6 341.333 341.333c0 187.733-153.6 341.333-341.333 341.333zm0-597.333c-93.867 0-170.667 76.8-170.667 170.667h85.333c0-46.933 38.4-85.333 85.333-85.333s85.333 38.4 85.333 85.333c0 85.333-128 76.8-128 213.333h85.333c0-98.133 128-106.667 128-213.333 0-93.867-76.8-170.667-170.667-170.667z"/></svg>