<svg xmlns="http://www.w3.org/2000/svg" viewBox="0 0 1024 1024"><path d="M738.133 548.694l-157.867-55.467 51.2 162.133 38.4-42.667 51.2 51.2 29.867-25.6-51.2-51.2zm-157.866 51.2h-230.4V352.427h324.267v140.8l46.933 12.8v-192h-409.6V642.56h281.6zM371.2 685.227h260.267v42.667H371.2v-42.667zM512 92.16c-234.667 0-426.667 192-426.667 426.667s192 426.667 426.667 426.667 426.667-192 426.667-426.667S746.667 92.16 512 92.16zm0 768c-187.733 0-341.333-153.6-341.333-341.333S324.267 177.494 512 177.494s341.333 153.6 341.333 341.333S699.733 860.16 512 860.16z"/></svg>