<svg xmlns="http://www.w3.org/2000/svg" viewBox="0 0 1043 1024"><path d="M952.432 589.338H394.623c3.397 92.572 79.263 166.329 172.353 166.329 2.567 0 5.118-.055 7.656-.168l-.362.011c.924.016 2.01.028 3.103.028 64.503 0 121.066-33.993 152.749-85.044l.443-.767h203.004C878.101 822.105 734.5 928.958 565.941 928.958c-62.36 0-121.305-14.626-173.589-40.631l2.27 1.021c-55.707 30.85-121.329 51.037-191.15 56.051l-1.522.089c-81.29 0-114.975-49.851-114.975-127.549 1.163-48.473 9.126-94.666 22.968-138.235l-.959 3.499c16.506-43.124 34.323-79.659 54.885-114.378l-1.89 3.446c62.59-113.031 139.338-209.535 229.489-291.564l.91-.814c-81.37 44.77-150.069 102.149-206.075 170.349l-.97 1.216c41.076-174.909 195.765-303.144 380.407-303.157h22.01c61.11-30.61 132.487-50.749 207.958-56.04l1.782-.1c78.596 0 145.966 30.09 145.966 118.569-3.011 51.029-16.114 98.33-37.33 140.885l.95-2.106c30.759 54.509 48.902 119.669 48.953 189.067v.014l.001.702c0 17.657-1.308 35.01-3.829 51.967l.233-1.916zM237.431 914.955c48.014-3.276 92.014-17.882 130.163-41.137l-1.265.716c-78.619-47.202-138.288-119.079-168.915-204.763l-.851-2.73c-25.976 46.597-43.459 101.349-48.832 159.611l-.121 1.623a77.372 77.372 0 0 0-.343 7.392c0 44.15 35.791 79.945 79.945 79.945 3.605 0 7.152-.238 10.63-.701l-.409.045zm508.856-432.507c-6.27-90.115-80.91-160.844-172.069-160.844-1.559 0-3.112.021-4.663.062l.23-.006a167.71 167.71 0 0 0-4.433-.056c-91.16 0-165.801 70.729-172.041 160.302l-.03.542zm83.536-341.783c-45.41 2.814-87.363 15.117-124.717 34.935l1.658-.803c80.17 32.024 145.495 87.069 189.469 156.909l.957 1.63c13.642-31.259 22.516-67.535 24.665-105.609l.037-.83c.006-.348.01-.755.01-1.166 0-47.13-38.206-85.332-85.332-85.332-2.373 0-4.726.096-7.05.288l.306-.02z"/></svg>