<svg xmlns="http://www.w3.org/2000/svg" viewBox="0 0 1024 1024"><path d="M853.333 220.161H170.666c-46.933 0-85.333 38.4-85.333 85.333v426.667c0 46.933 38.4 85.333 85.333 85.333h682.667c46.933 0 85.333-38.4 85.333-85.333V305.494c0-46.933-38.4-85.333-85.333-85.333zm-384 128h85.333v85.333h-85.333v-85.333zm0 128h85.333v85.333h-85.333v-85.333zm-128-128h85.333v85.333h-85.333v-85.333zm0 128h85.333v85.333h-85.333v-85.333zm-42.666 85.334h-85.333v-85.333h85.333v85.333zm0-128h-85.333v-85.333h85.333v85.333zm384 298.666H341.334v-85.333h341.333v85.333zm0-170.666h-85.333v-85.333h85.333v85.333zm0-128h-85.333v-85.333h85.333v85.333zm128 128h-85.333v-85.333h85.333v85.333zm0-128h-85.333v-85.333h85.333v85.333z"/></svg>