<svg xmlns="http://www.w3.org/2000/svg" viewBox="0 0 1037 1024"><path d="M390.498 902.827c0 23.565 19.103 42.668 42.668 42.668h170.668c23.565 0 42.668-19.103 42.668-42.668v-42.668h-256zm128-810.668c-164.831.159-298.389 133.815-298.389 298.668 0 100.957 50.09 190.215 126.777 244.275l.944 97.057c0 23.565 19.103 42.668 42.668 42.668h256c23.565 0 42.668-19.103 42.668-42.668v-96.428c77.63-54.69 127.721-143.951 127.721-244.908 0-164.851-133.558-298.509-298.372-298.668zm121.6 473.6l-36.268 25.6v98.132H433.162v-98.132l-36.268-25.6c-55.739-39.033-91.732-102.955-91.732-175.285 0-117.821 95.511-213.332 213.332-213.332s213.332 95.511 213.332 213.332c0 72.33-35.993 136.251-91.049 174.831z"/></svg>