<svg xmlns="http://www.w3.org/2000/svg" viewBox="0 0 1036 1024"><path d="M517.999 738.56c42.667 0 76.8-34.133 76.8-81.067s-34.133-76.8-76.8-76.8-76.8 34.133-76.8 81.067c0 42.667 34.133 76.8 76.8 76.8zm243.2-366.934h-38.4v-76.8c-4.267-115.2-93.867-204.8-204.8-204.8s-200.533 89.6-200.533 204.8h76.8c0-68.267 55.467-128 123.733-128s123.733 55.467 123.733 128v81.067H274.799c-42.667 0-76.8 34.133-76.8 81.067v409.6c0 42.667 34.133 81.067 76.8 81.067h482.133c42.667 0 76.8-34.133 76.8-81.067v-409.6c4.267-46.933-29.867-81.067-72.533-85.333zm0 490.667h-486.4V456.96h482.133l4.267 405.333z"/></svg>