<svg xmlns="http://www.w3.org/2000/svg" viewBox="0 0 1032 1024"><path d="M518.3 629.76c72.533 0 132.267-59.733 132.267-132.267v-268.8c0-76.8-59.733-136.533-132.267-136.533s-136.533 59.733-136.533 136.533v268.8c0 72.533 59.733 132.267 132.267 136.533 0-4.267 0-4.267 4.267-4.267zm238.933-132.266c-4.267 128-106.667 230.4-238.933 230.4-128 4.267-234.667-98.133-238.933-226.133h-76.8c4.267 153.6 119.467 281.6 268.8 302.933v140.8h89.6V800.427c153.6-21.333 264.533-149.333 268.8-302.933h-72.533z"/></svg>