<svg xmlns="http://www.w3.org/2000/svg" viewBox="0 0 1025 1024"><path d="M655.646 92.159H365.514c-60.678 2.81-108.81 52.688-108.81 113.806 0 .49.004.98.01 1.47l-.001 618.591c-.066 1.446-.103 3.14-.103 4.844 0 61.323 48.09 111.411 108.617 114.61l294.686.01c60.678-2.81 108.81-52.688 108.81-113.806 0-.49-.004-.98-.01-1.47l.001-622.859c-2.602-61.814-51.467-111.419-112.728-115.184zm-72.532 776.536H438.046v-38.4h145.068zm119.464-115.2h-384V207.363h384zm-53.76-320.428l-42.24-42.24-128.852 128.428-50.348-50.348-42.668 42.24 93.012 93.012 171.092-171.092z"/></svg>