<svg xmlns="http://www.w3.org/2000/svg" viewBox="0 0 1032 1024"><path d="M670.898 92.159H360.766c-53.61 0-97.068 43.458-97.068 97.068v659.2c0 53.61 43.458 97.068 97.068 97.068s97.068-43.458 97.068-97.068-43.458-97.068-97.068-97.068-97.068 43.458-97.068 97.068 43.458 97.068 97.068 97.068h310.132c53.61 0 97.068-43.458 97.068-97.068v-659.2c0-53.61-43.458-97.068-97.068-97.068zm-155.2 814.668c-32.107 0-58.132-26.029-58.132-58.132s26.029-58.132 58.132-58.132c32.107 0 58.132 26.029 58.132 58.132s-26.029 58.132-58.132 58.132zm174.666-155.2H341.296v-543.2h349.068v543.2z"/></svg>