<svg xmlns="http://www.w3.org/2000/svg" viewBox="0 0 1026 1024"><path d="M764.964 92.159h-388c-42.796.15-77.45 34.804-77.6 77.587v116.281h77.6v-77.6h388v620.8h-388v-77.6h-77.6v116.268c.15 42.796 34.804 77.45 77.587 77.6h388.013c42.796-.15 77.45-34.804 77.6-77.587V169.759c-.15-42.796-34.804-77.45-77.587-77.6zm-318.132 388v-58.4c0-53.332-53.332-97.068-108.532-97.068s-108.532 42.668-108.532 97.068v58.132c-25.048 1.73-44.935 21.62-46.658 46.51l-.01 135.89c.058 26.53 20.496 48.266 46.487 50.39l213.513.01c26.53-.058 48.266-20.496 50.39-46.487l.01-135.649c-.058-26.53-20.496-48.266-46.487-50.39zm-50.4 0H280.164v-58.4c1.483-28.266 24.763-50.623 53.265-50.623 1.713 0 3.41.081 5.083.239 1.247-.158 2.941-.239 4.654-.239 28.502 0 51.782 22.357 53.259 50.49l.007 58.266z"/></svg>