<svg xmlns="http://www.w3.org/2000/svg" viewBox="0 0 1024 1024"><path d="M755.425 307.291h-17.068v54.345h12.128a32.677 32.677 0 0 0 23.393-8.114 29.985 29.985 0 0 0 8.553-21.021c0-.65-.021-1.299-.062-1.941q.452-23.268-26.943-23.268zm93.418 368.728l89.825-494.034c0-49.61-40.215-89.825-89.825-89.825h-628.77c-49.61 0-89.825 40.215-89.825 89.825l89.825 494.034H85.337L534.46 945.491l449.123-269.472zm-374.12-179.647H388.94l-89.825-170.217q3.145 40.421 3.145 61.53v108.689h-57.936V254.297h85.332l89.825 167.97q-3.145-36.379-3.145-60.63v-107.34h58.387zm185.487 0H501.67V254.295h65.57v189.081h92.97zm98.807-80.395h-18.413v80.392h-67.37V254.292h85.783a98.11 98.11 0 0 1 7.29-.26c23.163 0 44.53 7.69 61.686 20.656 12.935 12.779 21.11 30.812 21.11 50.757 0 2.146-.094 4.27-.28 6.367.117 1.219.172 2.96.172 4.713 0 22.463-9.161 42.786-23.95 57.435-16.517 13.77-37.956 22.129-61.35 22.129-1.647 0-3.282-.042-4.909-.124z"/></svg>