<svg xmlns="http://www.w3.org/2000/svg" viewBox="0 0 1024 1024"><path d="M783.458 169.354h-162.1C604.649 124.262 562.01 92.706 512 92.706s-92.651 31.555-109.096 75.842l-162.361.806c-42.835 0-77.559 34.725-77.559 77.559v620.473c0 42.835 34.725 77.559 77.559 77.559h542.913c42.835 0 77.559-34.725 77.559-77.559V246.913c0-42.835-34.725-77.559-77.559-77.559zm-271.458 0c21.418 0 38.78 17.363 38.78 38.78s-17.363 38.78-38.78 38.78c-21.418 0-38.78-17.363-38.78-38.78s17.363-38.78 38.78-38.78zm271.458 698.034H240.545V246.915h77.559v116.34h387.795v-116.34h77.559zM318.101 479.59h387.795v77.559H318.101V479.59zm0 155.118h387.795v77.559H318.101v-77.559z"/></svg>