<svg xmlns="http://www.w3.org/2000/svg" viewBox="0 0 1024 1024"><path d="M242.243 480.068v79.771h315.215c6.295-29.506 17.917-55.548 33.901-78.301zm0 155.247v77.626h343.093c-13.921-22.257-24.003-48.407-28.572-76.409zm465.751 171.119v61.757H165.049V247.193h77.195v116.652h385.98V247.193h77.626v149.674c17.848-5.443 38.363-8.577 59.612-8.577h.002c3.137-.169 6.813-.264 10.507-.264s7.37.095 11.018.285l-.51-141.118v-.006c0-42.871-34.755-77.626-77.626-77.626-.302 0-.603.002-.904.006H545.883c-16.222-45.644-59.044-77.735-109.36-77.735s-93.139 32.095-109.11 76.928l-162.362.811-.43-.001c-42.871 0-77.626 34.755-77.626 77.626v621c0 42.871 34.755 77.626 77.626 77.626l.45-.002h542.922c42.871 0 77.626-34.755 77.626-77.626V812.87c-5.205 1.472-12.011 2.967-18.932 4.119-22.083-.811-41.708-4.661-60.179-10.998zM436.09 169.569c21.317 0 38.6 17.282 38.6 38.6s-17.282 38.6-38.6 38.6c-21.317 0-38.6-17.282-38.6-38.6.239-21.221 17.379-38.359 38.576-38.599zm329.369 261.608c-94.743 0-171.545 76.805-171.545 171.545s76.805 171.545 171.545 171.545c94.743 0 171.545-76.805 171.545-171.545s-76.805-171.545-171.545-171.545zM743.16 671.341l-11.151-11.579-57.469-57.038 23.159-23.588 46.318 46.318 92.636-92.636 23.588 23.159z"/></svg>