<svg xmlns="http://www.w3.org/2000/svg" viewBox="0 0 1024 1024"><path d="M625.92 433.491h-4.265v96h4.265c29.865 0 51.625-13.657 51.625-45.657.05-.812.076-1.766.076-2.721 0-26.393-21.396-47.785-47.785-47.785-1.38 0-2.745.057-4.092.171l.176-.01zm227.416-256H170.668c-47.129 0-85.336 38.204-85.336 85.336v512c0 47.129 38.204 85.336 85.336 85.336h682.668c47.129 0 85.336-38.204 85.336-85.336v-512c0-47.129-38.204-85.336-85.336-85.336zM298.664 774.827h-128v-85.336h128zm38.831-170.664h-81.496v-256h81.496v85.336H390.4v-85.336h81.496v256H390.4v-85.336h-52.905zm217.17 170.664H384v-85.336h170.665zM660.48 604.163H535.896v-256h85.336c82.344 0 146.776 36.697 146.776 132.696.193 2.497.302 5.407.302 8.345 0 61.029-47.453 110.968-107.478 114.946l-.345.02z"/></svg>