<svg xmlns="http://www.w3.org/2000/svg" viewBox="0 0 1031 1024"><path d="M837.851 363.949H554.119v-29.868c.35-3.55.55-7.671.55-11.842 0-18.232-3.811-35.575-10.684-51.274q-9.491-13.684-42.347-13.684a51.243 51.243 0 0 0-3.847-.137c-13.39 0-25.64 4.896-35.05 12.996-7.973 8.889-12.893 20.784-12.893 33.83 0 1.437.06 2.862.176 4.27-.234 1.828-.362 4.157-.362 6.518 0 21.64 10.67 40.789 27.032 52.47 42.145 22.57 92.554 44.882 144.654 63.657 67.495 23.97 116.201 45.403 163.246 69.61 19.794 12.105 42.13 33.076 58.784 58.15 17.389 27.299 27.449 59.701 27.449 94.451 0 2.295-.045 4.582-.13 6.856.099 1.777.15 4.25.15 6.73 0 58.917-28.57 111.162-72.61 143.636-62.583 40.779-138.041 65.74-219.161 68.17l-.635 67.002h-130.56v-69.972c-73.39-3.26-141.402-23.42-201.147-56.65-49.614-30.41-83.77-86.698-83.77-150.967 0-5.77.274-11.472.812-17.101l-.054-34.27h283.732v42.668c-.424 5.643-.665 12.222-.665 18.857 0 25.328 3.513 49.831 10.081 73.057q8.504 15.606 42.21 15.606c1.382.107 2.99.168 4.615.168 14.328 0 27.554-4.709 38.22-12.661 8.581-8.211 14.022-19.95 14.022-32.961 0-1.121-.04-2.231-.12-3.332.242-3.5.374-7.763.374-12.054 0-26.301-4.99-51.435-14.07-74.51-23.106-25.628-54.203-45.523-89.549-55.07q-129.278-51.921-177.918-76.241c-32.079-16.65-58.964-39.036-80.248-66.043-21.671-27.284-34.533-61.57-34.533-98.865 0-.526.003-1.05.009-1.573-.037-1.13-.058-2.554-.058-3.985 0-52.838 28.756-98.961 71.473-123.569 63.162-34.516 137.297-55.193 216.129-56.68l.454-57.18h130.56v57.6c72.745 1.763 140.334 22.302 198.57 56.929 37.705 25.01 63.471 69.232 63.471 119.474 0 1.585-.027 3.163-.076 4.733a305.985 305.985 0 0 1-2.73 34.627z"/></svg>