<svg xmlns="http://www.w3.org/2000/svg" viewBox="0 0 1024 1024"><path d="M443.307 538.884l5.977-30.297h10.665l3.84-16.217h-11.52l4.265-20.057h-20.48l-14.08 71.256c-3.84 20.48 11.52 23.465 16.217 23.465.271.009.589.013.909.013a28.88 28.88 0 0 0 14.586-3.929l-.137-15.289c-10.665 1.705-11.097-3.417-10.24-8.96zm53.336-47.794c-20.551.672-37.065 17.038-37.972 37.465a33.164 33.164 0 0 0-.409 5.246c0 18.145 14.711 32.857 32.857 32.857.595 0 1.184-.016 1.769-.046 1.137.079 2.56.121 3.993.121a69.845 69.845 0 0 0 22.442-3.676l2.492-15.215c-3.449.285-7.465.449-11.52.449s-8.073-.164-12.041-.484c-7.583.035-20.809.035-18.249-16.605h42.665c4.697-12.377 9.817-40.105-26.025-40.105zm-15.36 28.162c1.081-7.756 7.673-13.663 15.641-13.663.201 0 .4.006.601.009 8.077-.001 10.637 6.399 9.357 13.655zm77.224-20.05v-7.257H541.01l-14.08 74.664h20.48l6.4-34.137c5.977-22.185 15.785-20.905 20.905-20.905l5.12-19.625a23.37 23.37 0 0 0-3.729-.287 24.24 24.24 0 0 0-17.593 7.529zm64-5.975a24.545 24.545 0 0 1 2.05-.081c5.088 0 9.833 1.462 13.849 3.984l13.118-13.289c-6.298-7.37-15.609-12.015-25.996-12.015-.761 0-1.514.025-2.265.073-22.298.958-40.777 16.676-45.91 37.627-10.737 38.741 12.729 57.512 33.639 57.512.738.037 1.603.057 2.473.057a54.466 54.466 0 0 0 22.617-4.889l-6.313-18.207c-20.905 7.257-35.84-3.84-32.425-25.6 1.389-13.305 11.865-23.785 25.049-25.161zm-289.28-2.56h-.275c-9.414 0-18.606.934-27.497 2.711l-2.096 16.065c7.353-1.237 16.172-2.153 25.129-2.543 7.725-.017 15.405-.017 13.273 10.649-5.12 0-42.665-5.12-47.785 26.025a19.747 19.747 0 0 0-.169 2.615c0 11.077 8.979 20.057 20.057 20.057.51 0 1.017-.021 1.517-.057.681.078 1.545.121 2.416.121 5.433 0 10.48-1.639 14.681-4.442l2.464 4.329h19.2l8.105-42.665c2.137-8.105 5.545-32.857-29.017-32.857zm2.985 50.345c-2.041 5.417-7.183 9.202-13.209 9.202-1.529 0-3.004-.247-4.386-.697-6.729-2.534-5.019-10.638.101-14.905 2.585-1.092 5.593-1.723 8.745-1.723s6.161.633 8.9 1.785zm-68.689-65.282l-24.745 55.04-4.265-55.04h-32.857l-17.497 90.88h20.48l12.8-65.704 5.545 65.704h19.2l28.585-64-11.945 64h21.337l17.065-90.88h-33.705zm128.849 32c3.017-.48 6.489-.756 10.025-.756s7.017.276 10.405.805l4.315-15.409c-5.063-1.95-10.917-3.081-17.033-3.081a47.18 47.18 0 0 0-3.161.105c-2.842-.009-27.162-.009-31.002 17.913s2.137 19.625 7.257 21.76 12.377 6.4 16.64 8.537c1.769 1.061 2.93 2.965 2.93 5.141a5.976 5.976 0 0 1-5.466 5.952c-4.062.719-8.713 1.129-13.465 1.129s-9.401-.409-13.923-1.196l-2.505 15.433c6.303 1.669 13.543 2.625 21.001 2.625 1.167 0 2.329-.025 3.483-.073 4.953.009 29.273.009 32.687-21.328.393-1.333.619-2.858.619-4.441 0-5.876-3.127-11.017-7.801-13.865-4.29-2.8-9.19-5.506-14.286-7.849-4.985-.297-7.974-9.257-.718-11.389zm456.962-330.239H170.666c-47.129 0-85.336 38.204-85.336 85.336v512c0 47.129 38.204 85.336 85.336 85.336h682.668c47.129 0 85.336-38.204 85.336-85.336v-512c0-47.129-38.204-85.336-85.336-85.336zM654.507 722.347h-.313c-48.629 0-93.228-17.236-128.029-45.929 26.797-25.157 46.847-57.058 57.958-92.888l-16.65-1.555c-10.905 33.685-29.28 62.379-53.257 85.256-23.945-22.929-42.169-51.618-52.585-83.816l-17.468-1.44c11.465 37.193 31.365 68.939 57.538 94.232-34.705 28.617-79.656 45.929-128.65 45.929-112.401 0-203.52-91.119-203.52-203.52s91.119-203.52 203.52-203.52c48.992 0 93.944 17.31 129.066 46.153-26.592 25.068-46.489 56.819-57.543 92.456l16.649 1.555c10.822-33.641 29.047-62.328 52.843-85.272 24.118 22.892 42.489 51.593 52.992 83.841l17.47 1.433c-11.715-37.257-31.895-69.004-58.36-94.208 34.489-28.249 79.095-45.312 127.679-45.312 112.168 0 203.096 90.928 203.096 203.096 0 112.086-90.795 202.963-202.851 203.096zm87.466-223.577v-7.257h-17.92l-14.08 75.096h20.48l6.4-34.56c5.977-22.617 15.785-21.337 20.48-21.337l5.545-19.625a23.656 23.656 0 0 0-2.834-.164c-7.127 0-13.545 3.012-18.059 7.833zm15.79 24.322c-6.825 22.617 6.825 42.665 21.337 42.665 6.722-.38 12.867-2.558 18.047-6.057l2.433 6.057h22.185l17.92-95.576h-21.337l-5.545 29.017c-3.84-2.985-6.4-8.96-15.785-8.96s-29.017-1.28-39.257 32.857zm46.08-10.665c1.113 2.714 1.765 5.868 1.765 9.177s-.649 6.457-1.822 9.337c-3.783 9.225-8.473 15.193-16.153 15.193s-13.225-8.105-10.665-18.777 20.48-23.465 26.88-14.937zm-124.16-21.76h-.275c-9.414 0-18.606.934-27.497 2.711l-2.096 16.065c7.353-1.237 16.172-2.153 25.129-2.543 7.725-.017 15.405-.017 13.273 10.649-5.12 0-42.665-5.12-47.785 26.025a19.747 19.747 0 0 0-.169 2.615c0 11.077 8.979 20.057 20.057 20.057.51 0 1.017-.021 1.517-.057.681.078 1.545.121 2.416.121 5.433 0 10.48-1.639 14.681-4.442l2.464 4.329h19.2l8.105-42.665c1.705-8.105 5.12-32.857-29.017-32.857zm2.984 50.345c-2.041 5.417-7.183 9.202-13.209 9.202-1.529 0-3.004-.247-4.386-.697-6.729-2.534-5.019-10.638.101-14.905 2.585-1.092 5.593-1.723 8.745-1.723s6.161.633 8.9 1.785z"/></svg>