<svg xmlns="http://www.w3.org/2000/svg" viewBox="0 0 1024 1024"><path d="M85.336 305.494v426.662h853.328V305.494zM896 689.491H128.002V348.159H896zM341.334 518.829c.295-51.045 22.958-96.743 58.674-127.824l-229.341-.175v256H400.21c-35.922-31.257-58.584-76.954-58.879-127.945zm511.998 128v-256H623.789c35.507 31.425 57.783 77.114 57.783 128s-22.275 96.574-57.602 127.844zM460.373 513.282c10.455 7.114 22.865 14.613 35.668 21.485 10.575 4.745 17.291 10.635 21.825 18.014 2.045 6.967 3.161 14.76 3.161 22.814 0 1.195-.025 2.385-.075 3.569.045.275.075.795.075 1.315 0 3.602-1.145 6.935-3.085 9.655a11.073 11.073 0 0 1-9.395 3.787 6.908 6.908 0 0 1-1.065.075 8.545 8.545 0 0 1-7.832-5.135c-.544-4.091-.836-8.755-.836-13.495s.295-9.405.875-13.985l-.055-12.683H436.49v10.665a59.025 59.025 0 0 0-.335 6.405c0 17.248 7.155 32.825 18.665 43.925 11.709 9.365 26.387 15.441 42.425 16.645l.257 20.495h28.16v-20.48c18.289-1.235 34.605-8.805 46.965-20.515 9.8-10.995 15.811-25.615 15.811-41.638 0-.951-.023-1.895-.065-2.835.025-.471.035-1.183.035-1.895 0-10.235-2.211-19.955-6.181-28.705-3.155-7.025-7.925-13.295-13.825-18.275-9.145-6.635-19.475-13.015-30.275-18.615-13.994-6.855-24.755-13.382-34.885-20.727-2.892-3.578-5.055-8.904-5.055-14.729 0-.965.058-1.915.175-2.848-.035-.241-.045-.655-.045-1.065 0-3.839 1.125-7.415 3.066-10.415a9.805 9.805 0 0 1 7.762-3.794c.255 0 .508.009.76.028.348-.06.791-.095 1.238-.095a8.955 8.955 0 0 1 7.665 4.315c.565 2.865.875 6.105.875 9.425s-.311 6.565-.905 9.711l.052 8.635h61.014v-10.24c.055-.865.085-1.87.085-2.885 0-13.503-5.405-25.74-14.174-34.668-11.475-9.772-26.285-15.945-42.515-16.625l-.145-17.073h-28.16v17.065c-17.685.752-33.764 7.055-46.685 17.199-9.327 8.697-15.255 21.265-15.255 35.222 0 .924.025 1.835.075 2.745-.012.172-.015.523-.015.875 0 10.575 2.688 20.515 7.422 29.185a62.07 62.07 0 0 0 19.645 20.015z"/></svg>