<svg xmlns="http://www.w3.org/2000/svg" viewBox="0 0 1039 1024"><path d="M773.965 156.996a154.27 154.27 0 0 1 34.122 65.475l.217 1.06c2.55 12.907 4.01 27.746 4.01 42.925s-1.459 30.018-4.246 44.385l.235-1.46-2.147 15.451c-7.891 43.013-22.852 81.354-43.768 115.667l.843-1.489c-18.092 29.666-41.019 54.509-67.957 74.187l-.721.503c-25.752 19.069-55.995 33.835-88.719 42.509l-1.85.416c-31.283 7.916-67.196 12.459-104.17 12.459-1.106 0-2.21-.005-3.311-.011l.17.001h-75.976l-.307-.002a35.497 35.497 0 0 0-24.186 9.468l.024-.022c-6.439 5.633-10.931 13.353-12.416 22.097l-.03.224v-7.728l-40.351 260.983H179.458c-11.993-.235-21.655-9.897-21.892-21.871v-4.314L268.311 125.23c1.517-8.967 6.01-16.687 12.405-22.284l.045-.037c6.142-6.297 14.584-10.328 23.965-10.73l.072-.003h266.563c2.01-.034 4.38-.055 6.754-.055 40.406 0 79.453 5.822 116.345 16.671l-2.91-.733c32.645 8.867 60.554 25.93 82.344 48.858l.07.074zm73.403 181.144c16.999 18.44 28.487 42.198 31.705 68.513l.059.596c1.254 10.157 1.97 21.915 1.97 33.841 0 19.768-1.969 39.073-5.717 57.735l.311-1.865c-8.259 67.744-43.78 125.876-95.078 163.945l-.643.455c-46.967 29.673-104.123 47.28-165.393 47.28-2.217 0-4.43-.024-6.635-.07l.33.006h-21.032a32.505 32.505 0 0 0-21.51 7.765l.047-.038c-6.001 4.847-10.199 11.711-11.562 19.552l-.029.191v9.871l-26.185 164.404v7.728c-1.67 7.809-5.808 14.459-11.536 19.272l-.051.044a31.199 31.199 0 0 1-21.482 8.154H352.875a18.405 18.405 0 0 1-14.153-5.995l-.011-.013a19.674 19.674 0 0 1-5.58-13.734v-2.148l6.438-49.363h27.472l40.351-259.694v6.438c1.517-8.967 6.01-16.687 12.405-22.284l.045-.037a34.22 34.22 0 0 1 23.607-9.444h83.277a436.415 436.415 0 0 0 55.837-3.668l-2.183.231c18.736-2.299 35.464-5.762 51.674-10.445l-2.31.57c50.872-12.831 94.532-38.667 128.718-73.772l.057-.059c37.376-41.912 63.279-94.809 72.329-153.276l.213-1.684a29.88 29.88 0 0 1 .019-8.312l-.018.158c.163-1.095.255-2.362.255-3.65s-.091-2.551-.271-3.79l.016.141v-6.869l7.728 6.438z"/></svg>