<svg xmlns="http://www.w3.org/2000/svg" viewBox="0 0 1024 1024"><path d="M78.833 774.831h708.661V420.498H78.833zm35.521-318.814h638.055v283.727H114.354zm35.521 35.085v212.686h188.863c-30.066-25.818-48.992-63.872-48.992-106.341s18.927-80.527 48.803-106.185zm424.935 106.56c-.18 42.364-19.041 80.285-48.768 105.975l190.415.151V491.102H525.862c30.011 25.938 48.905 64.04 48.947 106.553zm-94.866-5.628c-7.555-5.335-16.207-10.519-25.242-15.055-11.659-5.743-20.596-11.215-29.001-17.371-2.491-2.991-4.339-7.459-4.339-12.355 0-.703.041-1.4.115-2.087a10.967 10.967 0 0 1-.067-1.298c0-3.007.826-5.815 2.264-8.221a8.245 8.245 0 0 1 6.914-2.958 5.976 5.976 0 0 1 1.043-.079 7.36 7.36 0 0 1 6.278 3.511c.469 2.376.727 5.071.727 7.831s-.259 5.455-.751 8.068l.043 7.097h50.684v-8.228a38.91 38.91 0 0 0 .031-1.555c0-11.477-4.459-21.906-11.743-29.658-9.421-8.047-21.585-13.173-34.926-13.831l-.139-14.299h-20.791v14.297c-14.683.163-28.206 5.012-39.166 13.123-7.85 7.188-12.871 17.693-12.871 29.366 0 .751.019 1.495.063 2.227-.007.091-.007.317-.007.541a50.494 50.494 0 0 0 6.199 24.31 51.357 51.357 0 0 0 14.04 16.543c8.863 6.103 19.195 12.416 29.856 18.211 8.876 3.871 14.539 8.827 18.259 15.079 1.536 5.45 2.371 11.527 2.371 17.797 0 1.411-.043 2.815-.127 4.208.031.1.043.439.043.775 0 3.055-.991 5.875-2.659 8.167a9.092 9.092 0 0 1-6.799 3.043c-.343 0-.679-.019-1.015-.055a5.138 5.138 0 0 1-.872.067 6.934 6.934 0 0 1-6.433-4.347c-.456-3.427-.705-7.339-.705-11.311s.249-7.879.739-11.719l-.046-10.375h-51.116v8.663a49.596 49.596 0 0 0-.451 6.729c0 14.371 5.983 27.345 15.595 36.57a64.095 64.095 0 0 0 35.322 13.867l.213 17.339h23.394V687.77c15.175-1.003 28.73-7.244 39.018-16.927 8.095-9.159 13.051-21.307 13.051-34.614 0-1.071-.031-2.131-.094-3.187.031-.479.043-1.214.043-1.951a57.412 57.412 0 0 0-4.951-23.394c-2.704-6.019-6.815-11.383-11.911-15.604zM118.252 341.662v39.416h708.661v354.333h39.416V341.663h-748.08zm78.833-78.839v39.416h708.661v392.449h39.416V262.82h-748.08z"/></svg>