<svg xmlns="http://www.w3.org/2000/svg" viewBox="0 0 1037 1024"><path d="M870.599 177.491c19.768.728 37.551 8.664 50.921 21.24l-.04-.04c13.087 12.792 21.204 30.624 21.204 50.351 0 .184-.001.376-.003.559v-.027 538.504c-.728 19.768-8.664 37.551-21.24 50.921l.04-.04c-12.792 13.087-30.624 21.204-50.351 21.204-.184 0-.376-.001-.559-.003H166.732c-19.768-.728-37.551-8.664-50.921-21.24l.04.04c-12.626-14.808-20.53-33.982-21.196-54.985l-.005-.139V249.573c.728-19.768 8.664-37.551 21.24-50.921l-.04.04c12.792-13.087 30.624-21.204 50.351-21.204.184 0 .376.001.559.003h-.027zm-703.865 55.123c-4.24 0-8.48 0-8.48 4.24s-8.48 8.48-8.48 12.721v97.526h733.551v-97.526c0-4.24 0-8.48-4.24-8.48s-4.24-4.24-8.48-4.24H166.734zM870.599 800.8c4.24 0 8.48 0 8.48-4.24s4.24-4.24 4.24-8.48V516.709H149.768V783.84c0 4.24 0 8.48 4.24 8.48s4.24 4.24 8.48 4.24 708.111 4.24 708.111 4.24zm-661.463-59.364v-55.123h114.487v55.123zm169.603 0v-55.123h169.61v55.123z"/></svg>