<svg xmlns="http://www.w3.org/2000/svg" viewBox="0 0 1024 1024"><path d="M819.2 826.027H204.8v-179.2h-34.136v213.336h682.668V646.827h-34.136v179.2zm-34.134-34.134V646.828H640.001c4.68 12.676 7.477 27.313 7.679 42.576l.001.088c-.072 40.839-18.172 77.433-46.766 102.259l-.168.141zM238.934 646.827v145.065h183.465c-28.76-24.968-46.86-61.561-46.936-102.389v-.011c.504-15.461 3.592-30.055 8.84-43.564l-.309.9zm328.53 0h-48.64v5.544h48.64v-5.544zm-65.704 0h-50.344c.12 7.976 2.157 15.45 5.672 22.02l-.126-.26c3.429 6.464 8.018 11.871 13.54 16.129l.116.087c8.377 5.787 18.28 11.867 28.492 17.448l1.8.902c6.696 2.799 12.12 7.536 15.704 13.505l.084.151c1.423 5.138 2.241 11.034 2.241 17.128 0 1.331-.04 2.649-.118 3.96l.008-.183c.008.168.009.36.009.557 0 2.996-.966 5.766-2.6 8.014l.025-.04a8.943 8.943 0 0 1-7.28 2.982l.024.002c-.27.04-.584.058-.904.058a6.825 6.825 0 0 1-6.336-4.28l-.016-.045c-.424-3.268-.668-7.047-.668-10.88s.245-7.612.713-11.32l-.045.44v-10.664h-49.92v8.536a47.647 47.647 0 0 0-.297 5.409c0 13.766 5.669 26.203 14.794 35.112l.008.008c9.367 7.44 21.108 12.266 33.928 13.214l.204.01v16.64h22.616v-16.64c14.61-.952 27.657-6.952 37.578-16.246l-.034.03c7.743-8.808 12.471-20.438 12.471-33.167 0-1.092-.036-2.171-.104-3.245l.008.148a55.262 55.262 0 0 0-4.833-24.243l.139.35c-2.792-5.928-6.68-10.913-11.448-14.876l-.072-.056c-7.233-5.257-15.469-10.36-24.079-14.84l-1.096-.52c-10.156-4.984-18.824-10.234-26.981-16.152l.525.361a12.75 12.75 0 0 1-3.388-5.456l-.024-.088zM85.333 561.491v213.336h42.664V604.162h768v170.665h42.664V561.491H85.325zm597.332-213.329l-30.72-30.72L532.48 436.907V177.491h-40.96v259.416L372.055 317.442l-30.72 30.72L512 518.827l170.665-170.665z"/></svg>