<svg xmlns="http://www.w3.org/2000/svg" viewBox="0 0 1024 1024"><path d="M691.2 378.027h-46.933c4.267-8.533 4.267-12.8 4.267-21.333 0-38.4-29.867-68.267-68.267-68.267-25.6 0-46.933 12.8-55.467 29.867L512 339.627l-12.8-17.067c-12.8-17.067-29.867-29.867-55.467-29.867-38.4 0-68.267 29.867-68.267 68.267 0 8.533 4.267 17.067 4.267 21.333H332.8c-25.6 0-46.933 17.067-46.933 42.667v243.2c0 25.6 21.333 42.667 46.933 42.667h358.4c25.6 0 46.933-17.067 46.933-42.667v-243.2c0-25.6-21.333-46.933-46.933-46.933zM580.267 335.36c12.8 0 21.333 12.8 21.333 21.333 0 12.8-8.533 21.333-21.333 21.333s-21.333-12.8-21.333-21.333c0-12.8 8.533-21.333 21.333-21.333zm-136.534 0c12.8 0 21.333 12.8 21.333 21.333 0 12.8-8.533 21.333-21.333 21.333s-21.333-12.8-21.333-21.333c0-12.8 8.533-21.333 21.333-21.333zM332.8 424.96H448l-46.933 59.733 38.4 25.6 51.2-72.533L512 412.16l21.333 29.867 51.2 72.533 38.4-25.6L576 429.227h115.2v132.267H332.8V424.961zm0 238.934v-42.667h358.4v42.667H332.8zM512 92.16c-234.667 0-426.667 192-426.667 426.667s192 426.667 426.667 426.667 426.667-192 426.667-426.667S746.667 92.16 512 92.16zm0 768c-187.733 0-341.333-153.6-341.333-341.333S324.267 177.494 512 177.494s341.333 153.6 341.333 341.333S699.733 860.16 512 860.16z"/></svg>