<svg xmlns="http://www.w3.org/2000/svg" viewBox="0 0 1024 1024"><path d="M256 732.163v-85.336h128v85.336H256zm213.336 0v-85.336h170.665v85.336H469.336zM256 348.162h81.496v85.336H390.4v-85.336h81.496v256H390.4v-85.336h-52.904v85.336H256zm275.624 0h90.025c81.92 0 146.345 36.696 146.345 132.696.193 2.497.302 5.407.302 8.344 0 61.029-47.453 110.969-107.478 114.946l-.344.02H535.889v-256zm90.032 183.041h4.264c29.864 0 51.624-13.656 51.624-45.656.133-1.331.206-2.873.206-4.44 0-26.392-21.396-47.784-47.784-47.784-1.425 0-2.836.061-4.229.184l.183-.011h-4.264zm231.68-353.712H170.668c-47.128 0-85.336 38.204-85.336 85.336v512c0 47.128 38.204 85.336 85.336 85.336h682.668c47.128 0 85.336-38.204 85.336-85.336v-512c0-47.128-38.204-85.336-85.336-85.336zm0 597.336H170.668v-512h682.668z"/></svg>