<svg xmlns="http://www.w3.org/2000/svg" viewBox="0 0 1024 1024"><path d="M85.332 945.495V502.187H128l8.532-22.612h20.908l9.388 22.612h78.931v-17.492l6.828 17.492h42.668l7.68-17.492v17.492h200.533v-36.268h7.256a9.946 9.946 0 0 1-.009 3.043l.009-.055v32h103.251v-8.532c10.971 5.739 23.965 9.108 37.745 9.108a83.11 83.11 0 0 0 5.156-.158l-.233.011h42.668l8.532-22.612h17.492l8.532 22.612h85.331v-21.76l14.08 21.76h66.988V362.668h-68.268v16.64l-9.388-16.64h-67.84v16.64l-8.532-16.64h-96.664c-6.724 0-13.266.777-19.54 2.249l.577-.113c-6.602 1.414-12.451 3.625-17.832 6.571l.34-.171v-8.532h-63.148v7.68c-3.192-2.148-6.855-4.018-10.737-5.432l-.355-.112c-3.761-1.351-8.1-2.132-12.623-2.132l-.189.001H290.131l-15.788 35.412-15.788-35.412h-73.388v16.64l-7.68-16.64h-62.72l-29.44 66.132V92.169h853.334v443.308h-47.788a50.762 50.762 0 0 0-14.868 2.231l.36-.094c-5.207 1.451-9.739 3.342-13.971 5.711l.317-.164v-7.68h-66.988a45.192 45.192 0 0 0-14.828 2.223l.32-.091c-4.392 1.461-8.206 3.34-11.7 5.659l.18-.111v-7.68H652.364v7.68c-4.046-2.262-8.731-4.16-13.658-5.451l-.422-.093c-4.672-1.353-10.041-2.132-15.591-2.132h-79.559v7.68c-3.913-2.206-8.449-4.096-13.211-5.44l-.442-.108c-4.473-1.354-9.614-2.134-14.939-2.134l-.444.002h-90.431l-20.052 21.76-19.628-21.76h-128v139.52h128l20.908-21.76 19.2 21.76h78.08v-32.852h9.812c2.302.221 4.975.348 7.68.348s5.378-.127 8.018-.371l-.338.027c5.514-.934 10.391-2.271 15.063-4.024l-.555.184v37.12h64v-37.12h5.972v35.84h198.828a61.529 61.529 0 0 0 17.071-2.235l-.431.103c5.359-1.361 10.06-3.565 14.214-6.491l-.134.091v8.532h65.708c2.56.285 5.529.447 8.532.447s5.972-.162 8.895-.477l-.363.031 15.36-4.268v275.628zm259.416-462.08h-24.32v-78.931l-35.412 78.08h-21.76l-35.84-78.08v78.931h-46.508l-10.24-22.612h-49.92l-8.532 22.612h-26.88l42.668-100.691h35.412l41.388 93.44v-93.44h38.828l31.148 67.84 28.588-67.84h39.68zM162.56 440.747l-16.64-39.68L128 439.895zm316.588 213.332h-46.932l-29.44-32.852-31.148 32.852h-94.72v-99.84h96.428l29.44 32.852 30.292-32.852h76.371a52.63 52.63 0 0 1 2.068-.038c9.879 0 19.165 2.544 27.234 7.011l-.291-.148c7.131 5.087 11.728 13.331 11.728 22.649 0 1.191-.074 2.365-.221 3.515l.013-.136q0 30.292-25.6 32.428t-45.652 2.132zm-91.308-49.921l-26.88-28.588h-62.292v17.492h55.468v20.908h-55.468v20.052h60.588zm54.612-121.599h-80.64v-99.84h80.64v20.908h-56.32v17.068h54.612v20.908h-54.612v20.052h56.32zm12.376 164.268v-81.068l-36.692 38.4zm85.332-209.92c5.851 1.271 10.686 4.852 13.601 9.718l.051.094c1.913 4.517 3.028 9.771 3.028 15.284 0 .628-.013 1.251-.043 1.871l.004-.089v19.2h-25.172v-26.028q0-9.388-20.48-9.388h-26.028v35.412h-23.468V382.713h56.552a85.251 85.251 0 0 1 27.25 4.443l-.602-.175c7.671 2.931 13.023 10.231 13.023 18.781 0 1.051-.081 2.085-.236 3.091l.013-.111a27.608 27.608 0 0 1-4.755 15.457l.063-.097c-2.851 4.519-6.747 8.141-11.358 10.591l-.162.078zM512 576.855h-31.148v27.308h30.292c.233.011.511.015.785.015 3.828 0 7.391-1.119 10.386-3.051l-.075.047c2.631-2.131 4.297-5.356 4.297-8.973 0-.294-.011-.589-.031-.877l.003.038a11.08 11.08 0 0 0-4.659-9.788l-.033-.024c-2.953-1.874-6.551-2.991-10.411-2.991l-.271.002h.012zm2.56-170.668h-30.292v21.76H512a25.958 25.958 0 0 0 10.833-2.198l-.168.067c2.851-1.537 4.754-4.503 4.754-7.911 0-.371-.023-.732-.067-1.091l.005.044a8.961 8.961 0 0 0-4.226-8.937l-.04-.023a22.822 22.822 0 0 0-10.991-4.257l-.104-.011zm128 204.8c5.318 2.054 9.609 5.791 12.311 10.551l.062.118c1.905 4.372 3.011 9.471 3.011 14.822 0 .491-.011.976-.029 1.462l.003-.071v20.052h-24.32v-16.64q0-12.8-4.692-16.64c-4.119-2.233-9.018-3.548-14.225-3.548a31.31 31.31 0 0 0-2.968.144l.125-.011h-25.172v36.268h-24.32V554.243h56.32c.163-.002.354-.002.549-.002 9.308 0 18.211 1.723 26.41 4.867l-.507-.171c7.471 3.298 12.591 10.643 12.591 19.182 0 1.06-.079 2.103-.231 3.12l.013-.114a26.752 26.752 0 0 1-4.75 15.875l.058-.091c-2.928 4.326-6.807 7.792-11.351 10.159l-.171.081zm-47.789-125.868h-24.32v-102.4h24.32zm22.617 93.868h-30.292v22.612h30.292a25.958 25.958 0 0 0 10.833-2.198l-.168.067q4.692-2.132 4.692-9.812t-5.12-9.388c-1.539-.255-3.311-.402-5.12-.402s-3.581.147-5.311.428l.191-.026zm261.12-93.868H844.8l-46.508-77.228v75.52H748.8l-9.388-22.612H689.92l-8.532 22.612h-27.732c-1.306.131-2.82.211-4.351.211-12.426 0-23.691-4.964-31.923-13.015l.011.011c-7.258-9.085-11.649-20.738-11.649-33.416 0-1.304.048-2.594.137-3.874l-.011.171a55.22 55.22 0 0 1-.082-3.028 55.668 55.668 0 0 1 11.696-34.221l-.094.129c8.335-8.769 20.087-14.221 33.11-14.221 1.262 0 2.511.051 3.748.151l-.163-.011h23.468v22.612h-33.28q-14.08 0-14.508 26.452a40.208 40.208 0 0 0-.077 2.575 42.512 42.512 0 0 0 4.455 19.006l-.111-.249c3.628 4.571 9.18 7.473 15.411 7.473 1.035 0 2.051-.08 3.046-.234l-.111.013h11.092l33.708-78.08h35.412l40.532 94.291v-93.44h37.548l42.668 69.548v-69.548h24.32zM752.64 655.787h-81.068V554.239h79.788v20.908h-56.32v17.492h54.612v20.908H695.04v20.908h56.32zm-20.052-215.891l-16.64-39.68-16.64 39.68zm33.705 213.331v-19.2h44.372c1.283.252 2.757.398 4.268.398s2.985-.146 4.411-.422l-.146.024c2.577-1.151 4.341-3.691 4.341-6.644a7.6 7.6 0 0 0-.079-1.076l.006.04q0-16.64-31.148-9.812t-31.148-29.868a24.5 24.5 0 0 1-.005-.491c0-8.071 3.446-15.331 8.946-20.4l.019-.017a29.77 29.77 0 0 1 21.358-8.532h51.177v20.908h-42.668c-1.283-.252-2.757-.398-4.268-.398s-2.985.146-4.411.422l.146-.024c-2.577 1.151-4.341 3.691-4.341 6.644 0 .367.029.726.079 1.076l-.006-.04q0 16.64 31.148 8.96t31.148 29.012c.038.568.06 1.231.06 1.895 0 9.385-4.331 17.758-11.097 23.232l-.056.045c-7.044 4.319-15.571 6.876-24.696 6.876-.769 0-1.531-.018-2.291-.053l.109.005zm172.375-10.24a56.026 56.026 0 0 1-13.344 9.668l-.311.148c-4.533 2.423-9.918 3.846-15.633 3.846-.204 0-.408-.002-.611-.006l.031.001h-49.068v-22.612h46.08c1.218.264 2.618.413 4.052.413s2.834-.151 4.185-.437l-.131.024c2.349-1.345 3.905-3.833 3.905-6.689a7.46 7.46 0 0 0-.071-1.031l.005.039q0-15.788-30.72-9.388t-30.72-30.292c-.011-.258-.011-.562-.011-.867 0-16.259 13.181-29.44 29.44-29.44.305 0 .611.006.911.013l-.045-.001h52.052v20.908h-42.668c-1.348-.291-2.893-.456-4.48-.456s-3.132.168-4.626.483l.146-.027c-2.349 1.345-3.905 3.833-3.905 6.689 0 .351.024.693.071 1.031l-.005-.039q0 12.8 22.612 8.96c2.3-.551 4.94-.871 7.653-.871 9.968 0 18.934 4.271 25.175 11.085l.024.027z"/></svg>