<svg xmlns="http://www.w3.org/2000/svg" viewBox="0 0 1026 1024"><path d="M328.486 586.309l341.276-341.276 115.136 115.136-341.276 341.276-115.136-115.136zM707.01 207.721l39.855-39.855 115.136 115.136-39.855 39.855L707.01 207.721zm75.863-75.854l39.855-39.855 115.136 115.136-39.855 39.855-115.136-115.136zM402.101 732.711H296.054V626.245l106.047 106.466zm319.392-242.569v327.744H210.884V307.277H544.89l127.755-127.755H171.639c-46.117 0-83.5 37.383-83.5 83.5v599.12c0 46.117 37.383 83.5 83.5 83.5h592.44c46.117 0 83.5-37.383 83.5-83.5V361.136z"/></svg>