<svg xmlns="http://www.w3.org/2000/svg" viewBox="0 0 1024 1024"><path d="M692.908 337.919c-46.287-46.343-110.24-75.03-180.893-75.092l-.011 256-180.908 180.908c46.864 50.192 113.425 81.479 187.291 81.479 141.386 0 256-114.614 256-256 0-73.87-31.287-140.43-81.33-187.154zM512 92.159c-235.642 0-426.668 191.026-426.668 426.668S276.358 945.495 512 945.495s426.668-191.026 426.668-426.668S747.642 92.159 512 92.159zm0 768c-188.512 0-341.332-152.82-341.332-341.332S323.488 177.495 512 177.495s341.332 152.82 341.332 341.332S700.512 860.159 512 860.159z"/></svg>