<svg xmlns="http://www.w3.org/2000/svg" viewBox="0 0 1024 1024"><path d="M703.36 227.415v46.932h26.028v112.212c0 28.985-23.495 52.48-52.48 52.48H572.8v-26.452h-46.932v209.068h47.36v-26.452h102.828c115.838-.243 209.677-94.082 209.92-209.896V274.351h26.028v-46.932zM320.212 806.827v-46.932h-26.028V646.827c0-28.985 23.495-52.48 52.48-52.48h104.108v26.452h47.36V412.587h-47.36v26.452H347.52c-114.91.471-208.051 93.014-209.49 207.65l-.002.136v110.932H112v47.36zm565.76-649.388v-65.28H729.384v65.28h-26.028v47.36h208.64v-47.36h-26.028zM139.308 880.215v65.28h156.588v-65.28h26.028v-47.36h-208.64v47.36h26.028z"/></svg>