<svg xmlns="http://www.w3.org/2000/svg" viewBox="0 0 1024 1024"><path d="M804.03 349.346H219.71c-68.978 0-124.896 55.918-124.896 124.896v250.573H261.69v166.876h500.624V724.815H929.19V474.503v-.26c0-68.978-55.918-124.896-124.896-124.896h-.274zM678.876 808.251H345.128V599.659h333.748v208.592zM804.03 516.219c-23.041 0-41.72-18.679-41.72-41.72s18.679-41.72 41.72-41.72 41.72 18.679 41.72 41.72-18.679 41.72-41.72 41.72-41.72-18.679-41.72-41.72 18.679-41.72 41.72-41.72 41.72 18.679 41.72 41.72-18.679 41.72-41.72 41.72zm-41.718-375.468H261.688v166.876h500.624V140.751z"/></svg>