<svg xmlns="http://www.w3.org/2000/svg" viewBox="0 0 1024 1024"><path d="M328.108 433.495c-8.199 1.55-15.249 5.673-20.45 11.486l-6.857 6.862 33.708 33.708 6.828-5.548c5.847-5.231 9.97-12.281 11.485-20.253.13-1.009.181-1.911.181-2.83 0-12.96-10.508-23.468-23.468-23.468-.502 0-.999.015-1.491.048zm122.452-48.64a51.334 51.334 0 0 0 17.575 11.825c6.272 2.619 13.167 4.07 20.397 4.07s14.125-1.45 20.403-4.077a57.006 57.006 0 0 0 28.949-28.95 53.916 53.916 0 0 0 4.41-20.361c.02-.588.03-1.21.03-1.837a52.32 52.32 0 0 0-3.567-19.053c-5.46-13.298-16.09-23.928-29.387-29.379-5.93-2.31-12.381-3.57-19.128-3.57-.602 0-1.201.01-1.798.03a54.335 54.335 0 0 0-20.322 4.4 56.996 56.996 0 0 0-28.942 28.942c-2.64 6.29-4.09 13.185-4.09 20.415s1.45 14.125 4.077 20.403a51.16 51.16 0 0 0 11.39 17.142zm166.4 89.172c-7.857 1.517-14.61 5.485-19.597 11.06l-6.43 6.432 32 32 6.4-6.4c5.61-5.018 9.575-11.77 11.057-19.408.06-.613.073-1.074.073-1.539 0-12.49-10.125-22.612-22.612-22.612-.465 0-.925.013-1.382.042zm-413.44 78.508L192 564.055l33.708 33.708 11.52-11.52q19.628-19.628 2.56-36.268t-36.268 2.56zM512 92.159c-235.642 0-426.668 191.026-426.668 426.668S276.358 945.495 512 945.495s426.668-191.026 426.668-426.668S747.642 92.159 512 92.159zm-119.892 218.88c12.411-27.11 33.589-48.422 59.834-60.697a100.715 100.715 0 0 1 41.357-8.86c13.357 0 26.09 2.67 37.699 7.503 24.95 10.73 44.888 30.806 55.411 55.816 4.85 11.65 7.521 24.383 7.521 37.74 0 .474-.004.95-.01 1.423-.208 14.171-3.328 27.636-8.79 39.822-12.233 26.296-33.392 47.454-59.574 59.63-12.679 5.69-26.606 8.822-41.262 8.822-55.61 0-100.692-45.082-100.692-100.692 0-14.657 3.13-28.584 8.763-41.146zm-98.988 95.148a76.407 76.407 0 0 1 22.969-15.17c6.778-3.028 14.111-4.681 21.831-4.681s15.054 1.652 21.669 4.627a65.952 65.952 0 0 1 18.87 13.095c9.035 8.317 15.33 19.495 17.444 32.091.198 1.842.286 3.597.286 5.372a53.1 53.1 0 0 1-9.316 30.126l98.677 12.618-42.668 42.668-85.332-18.772 52.052 53.332-35.412 35.412-135.68-135.68zm-29.012 301.228L128 571.307l56.32-56.32c11.611-13.222 28.161-21.865 46.738-23.03 18.387.49 34.588 8.61 45.79 21.257 12.93 11.267 21.201 27.47 21.814 45.614-1.8 18.279-10.488 34.136-23.375 45.257l-19.29 22.689 42.668 45.228zm333.224-12.8l-102.4-101.548-27.732 27.732-22.188-22.188 15.788 90.88 117.76 20.908-42.668 42.668-66.56-15.788 11.948 72.96-42.668 42.668-17.068-120.748-101.548-21.76 42.668-42.668 51.2 16.212-11.948-55.468 125.44-125.44 28.588 28.588-27.732 27.732L629.76 660.903zM829.44 416.427l-48.212 48.212 14.932 30.292-68.692 68.692-82.348-17.92 50.348 49.92-33.708 33.708-130.132-130.132 52.48-52.48a73.19 73.19 0 0 1 21.739-15.598c6.698-3.183 14.034-4.93 21.781-4.93s15.083 1.75 21.637 4.873a62.823 62.823 0 0 1 18.039 12.668c8.379 8.47 13.986 19.69 15.342 32.19.189 1.784.283 3.573.283 5.387a50.527 50.527 0 0 1-8.908 28.731l79.046 10.07-73.812-168.532 37.12-37.12 179.628 80.64-36.268 36.268zm-64.852 13.652l30.292-30.292-58.452-28.588 28.16 58.88z"/></svg>