<svg xmlns="http://www.w3.org/2000/svg" viewBox="0 0 1024 1024"><path d="M351.56 266.085l217.161-88.939 56.597 138.193-217.161 88.939-56.597-138.193zm-116.893 86.342l102.4 251.733c21.333-12.8 46.933-25.6 72.533-34.133L294.4 284.16l-128-46.933c-21.333 0-46.933 12.8-46.933 34.133 0 12.8 8.533 25.6 12.8 38.4l102.4 42.667zm640 243.2l-217.6 89.6c0 8.533 8.533 8.533 8.533 12.8 8.533 21.333 12.8 38.4 12.8 68.267l230.4-93.867c21.333-12.8 25.6-38.4 12.8-59.733-4.267-17.067-25.6-25.6-46.933-17.067zm-448-149.333L473.6 552.961c59.733 0 119.467 25.6 162.133 72.533l230.4-93.867L768 305.494l-341.333 140.8zm195.544 263.859c35.723 87.225-6.027 186.894-93.252 222.618s-186.894-6.027-222.618-93.252c-35.723-87.225 6.027-186.894 93.252-222.618s186.894 6.027 222.618 93.252z"/></svg>