<svg xmlns="http://www.w3.org/2000/svg" viewBox="0 0 1024 1024"><path d="M512 92.159c-235.642 0-426.668 191.026-426.668 426.668S276.358 945.495 512 945.495s426.668-191.026 426.668-426.668S747.642 92.159 512 92.159zm0 768c-188.512 0-341.332-152.82-341.332-341.332S323.488 177.495 512 177.495s341.332 152.82 341.332 341.332S700.512 860.159 512 860.159zm197.12-497.92l-85.76-87.892-144.64 26.88 142.508 146.772 87.892-85.76zM649.741 477.1l87.698-85.462 57.172 58.67-87.698 85.462-57.172-58.67zm-54.969 56.235l26.88-26.452-83.2-85.332-26.88 26.452-24.32-25.172c1.049-5.658 1.648-12.17 1.648-18.821 0-59.852-48.52-108.372-108.372-108.372-16.38 0-31.91 3.633-45.831 10.14l76.611 74.389-53.76 53.332-75.948-75.092c-6.35 13.338-10.057 28.987-10.057 45.498 0 59.617 48.33 107.948 107.948 107.948 8.711 0 17.186-1.031 25.3-2.981l21.025 22.335-108.372 105.812c-3.747 3.776-6.061 8.978-6.061 14.72s2.314 10.944 6.062 14.722l53.758 55.038c3.776 3.747 8.978 6.061 14.72 6.061s10.944-2.314 14.722-6.062l108.798-105.81 104.108 106.668c3.776 3.747 8.978 6.061 14.72 6.061s10.944-2.314 14.722-6.062l55.038-53.758c3.747-3.776 6.061-8.978 6.061-14.72s-2.314-10.944-6.062-14.722z"/></svg>