<svg xmlns="http://www.w3.org/2000/svg" viewBox="0 0 1024 1024"><path d="M512 92.16c-234.667 0-426.667 192-426.667 426.667s192 426.667 426.667 426.667 426.667-192 426.667-426.667S746.667 92.16 512 92.16zm0 768c-187.733 0-341.333-153.6-341.333-341.333S324.267 177.494 512 177.494c187.733 0 341.333 153.6 341.333 341.333C853.333 706.56 704 860.16 512 860.16c4.267 0 4.267 0 0 0zm-93.135-497.948l138.193-56.597 35.575 86.864-138.193 56.597-35.575-86.864zM345.6 416.427l64 157.867c12.8-8.533 29.867-17.067 46.933-21.333L384 373.761l-81.067-29.867c-12.8 0-29.867 8.533-29.867 21.333 0 8.533 4.267 17.067 8.533 25.6l64 25.6zm405.333 153.6L614.4 625.494c0 4.267 4.267 4.267 4.267 8.533 4.267 12.8 8.533 25.6 8.533 42.667l145.067-59.733c12.8-8.533 17.067-25.6 8.533-38.4-4.267-8.533-17.067-12.8-29.867-8.533zM465.067 476.16l29.867 68.267c38.4 0 76.8 17.067 102.4 46.933l145.067-59.733-59.733-145.067-217.6 89.6zm124.091 168.195c22.327 54.516-3.767 116.809-58.283 139.136s-116.809-3.767-139.136-58.283c-22.327-54.516 3.767-116.809 58.283-139.136s116.809 3.767 139.136 58.283z"/></svg>