<svg xmlns="http://www.w3.org/2000/svg" viewBox="0 0 1024 1024"><path d="M512 92.159c-235.642 0-426.668 191.026-426.668 426.668S276.358 945.495 512 945.495s426.668-191.026 426.668-426.668S747.642 92.159 512 92.159zm0 768c-169.106-.15-309.413-123.25-336.366-284.726l115.778 114.058 31.572-31.572-40.108-40.108 18.772-18.772c11.94-10.551 19.669-25.633 20.474-42.53.007-.23.007-.338.007-.449 0-16.855-7.405-31.982-19.138-42.303-10.438-11.85-25.565-19.254-42.42-19.254l-.328.001c-17.015.811-32.097 8.54-42.592 20.414l-43.575 49.986c-1.739-12.942-2.73-27.904-2.73-43.095 0-188.512 152.82-341.332 341.332-341.332 145.602 0 269.911 91.166 318.959 219.53l-137.881-59.951-32.852 32.852 66.988 149.332-70.4-9.388c4.939-7.142 7.89-15.989 7.89-25.522 0-1.53-.075-3.043-.225-4.532a48.244 48.244 0 0 0-14.886-27.514 55.772 55.772 0 0 0-15.91-11.407c-5.898-2.81-12.43-4.367-19.322-4.367s-13.424 1.556-19.257 4.338a65.028 65.028 0 0 0-19.33 13.938l-46.957 46.959 116.052 116.052 30.292-30.292-42.668-42.668 70.828 13.652 60.588-60.588-13.228-26.88 42.668-42.668 26.88 13.228 18.348-18.348c8.125 27.748 12.797 59.623 12.797 92.59 0 188.063-152.09 340.602-339.981 341.331zM227.412 561.495l10.24-10.24q17.492-17.492 32.428-2.132t-2.132 32.428L256 592.643zm536.32-145.92l-26.88 26.88-25.172-51.628zm-136.96 85.332c-1.33 6.996-4.84 13.012-9.786 17.47l-5.574 5.57-28.588-28.588 5.548-5.548c4.48-4.972 10.496-8.485 17.298-9.783.59-.059 1.051-.074 1.518-.074 11.074 0 20.052 8.978 20.052 20.052 0 .467-.015.929-.049 1.387zm-206.08 60.588l-46.508-48.212 76.372 16.64 39.252-39.252-87.468-11.52c5.2-7.492 8.309-16.78 8.309-26.791 0-1.532-.071-3.05-.214-4.546a50.413 50.413 0 0 0-15.731-28.788 58.695 58.695 0 0 0-16.75-11.83c-6.171-2.93-12.995-4.55-20.197-4.55s-14.026 1.623-20.125 4.522a67.99 67.99 0 0 0-20.177 14.368l-49.086 49.086L389.541 591.37zm-60.584-74.24l-5.972 5.972-29.868-29.868 5.972-5.972c4.59-5.135 10.746-8.788 17.71-10.205a14.194 14.194 0 0 1 1.53-.077c11.548 0 20.908 9.36 20.908 20.908 0 .466-.014.928-.046 1.385-1.45 7.111-5.101 13.269-10.206 17.83zm64-51.628c16.063 16.496 38.489 26.73 63.302 26.73 12.915 0 25.185-2.771 36.243-7.754 23.57-10.891 42.511-29.833 53.35-53.29a89.736 89.736 0 0 0 7.968-36.931c0-11.847-2.354-23.142-6.623-33.446-9.47-22.266-27.29-40.085-49.523-49.535a85.111 85.111 0 0 0-33.074-6.649c-.589 0-1.171.007-1.757.017-12.617.207-24.613 3.011-35.468 7.909-23.39 10.967-42.175 29.89-52.912 53.28a88.165 88.165 0 0 0-7.81 36.363c0 24.813 10.232 47.239 26.71 63.283zm23.04-85.332c5.187-11.69 14.334-20.841 25.707-25.899a48.398 48.398 0 0 1 18.187-3.968 46.847 46.847 0 0 1 18.296 3.093 47.983 47.983 0 0 1 26.016 26.028 46.65 46.65 0 0 1 3.101 18.31 47.938 47.938 0 0 1-3.959 18.161 50.561 50.561 0 0 1-25.587 25.589c-5.616 2.375-11.775 3.684-18.241 3.684s-12.625-1.308-18.23-3.67a47.942 47.942 0 0 1-26.03-26.02c-2.366-5.613-3.67-11.772-3.67-18.238s1.308-12.625 3.67-18.23zM551.68 532.907l-25.6-25.172-112.64 112.64 10.668 49.068-45.652-14.08-37.12 37.12 90.028 17.92 16.64 107.092 36.268-36.268-10.668-65.28 61.012 14.508 36.692-36.268-104.532-18.772-14.508-82.348 19.628 19.628 24.748-24.748 90.452 90.452 30.292-30.292-90.452-90.452 24.748-24.748z"/></svg>