<svg xmlns="http://www.w3.org/2000/svg" viewBox="0 0 1024 1024"><path d="M512 92.159c-235.642 0-426.668 191.026-426.668 426.668S276.358 945.495 512 945.495s426.668-191.026 426.668-426.668S747.642 92.159 512 92.159zm111.36 182.188l85.332 87.892-87.892 85.332-142.08-146.348zm74.668 395.092l-55.04 53.76c-3.776 3.747-8.978 6.061-14.72 6.061s-10.944-2.314-14.722-6.062L509.44 616.532l-108.8 105.812c-3.776 3.747-8.978 6.061-14.72 6.061s-10.944-2.314-14.722-6.062l-53.758-55.89c-3.747-3.776-6.061-8.978-6.061-14.72s2.314-10.944 6.062-14.722l109.226-105.81-21.76-22.188c-7.666 1.946-16.465 3.061-25.525 3.061-59.617 0-107.948-48.33-107.948-107.948 0-16.602 3.749-32.33 10.445-46.38l75.668 75.747 53.76-53.332-75.948-74.668c13.175-6.142 28.605-9.726 44.87-9.726 59.852 0 108.372 48.52 108.372 108.372 0 6.909-.647 13.664-1.882 20.21l24.427 24.499 26.88-26.452 83.2 85.332-26.88 26.452 104.108 106.668a20.822 20.822 0 0 1 5.439 14.067 20.84 20.84 0 0 1-5.87 14.528zm8.96-133.972l-57.172-59.308 87.892-85.332 57.172 58.452z"/></svg>