<svg xmlns="http://www.w3.org/2000/svg" viewBox="0 0 1024 1024"><path d="M512 92.159c-235.642 0-426.668 191.026-426.668 426.668S276.358 945.495 512 945.495s426.668-191.026 426.668-426.668S747.642 92.159 512 92.159zm4.268 768c-1.27.016-2.768.028-4.268.028-188.512 0-341.332-152.82-341.332-341.332S323.488 177.523 512 177.523c188.505 0 341.318 152.806 341.332 341.306.007.764.01 1.665.01 2.567 0 186.503-150.71 337.807-336.985 338.77zm81.064-362.664c0-106.038-85.962-192-192-192s-192 85.962-192 192 85.962 192 192 192h12.8l51.2 42.668h128L512 657.495c51.749-34.845 85.333-93.209 85.333-159.416l-.001-.615zm-154.88 99.84c-4.37 2.356-9.582 4.662-14.978 6.576-7.22 1.73-14.582 2.576-22.142 2.576s-14.922-.849-21.996-2.451a109.484 109.484 0 0 1-18.859-5.688c-39.756-15.476-67.946-54.151-67.946-99.411 0-58.91 47.756-106.668 106.668-106.668s106.668 47.756 106.668 106.668c0 45.26-28.19 83.935-67.968 99.43zm176.216-206.508h.212c34.711 0 65.537 16.65 84.925 42.395l79.13-34.714c-33.118-56.276-93.39-93.45-162.34-93.45-23.685 0-46.345 4.387-67.21 12.39 25.73 19.739 45.767 44.271 60.401 72.09zm0 213.332H614.4c-15.251 29.109-35.29 53.641-59.333 73.492 18.9 7.617 41.21 11.842 64.51 11.842 64.655 0 121.711-32.537 155.69-82.13l-87.476-30.085c-18.293 16.39-42.49 26.528-69.049 26.879z"/></svg>