<svg xmlns="http://www.w3.org/2000/svg" viewBox="0 0 1031 1024"><path d="M771.333 92.159h-512c-47.13 0-85.332 38.206-85.332 85.332v768l85.332-85.332 85.332 85.332 85.332-85.332 85.332 85.332 85.332-85.332 85.332 85.332 85.332-85.332 85.332 85.332v-768c0-47.13-38.206-85.332-85.332-85.332zm-188.16 640a84.923 84.923 0 0 1-52.259 21.75l-.221 20.916h-31.572v-22.612c-18.16-1.283-34.581-7.817-48.002-18.077a64.29 64.29 0 0 1-21.402-47.99c0-2.128.104-4.23.305-6.304l-.021-11.256h68.268v14.08c-.59 4.356-.925 9.391-.925 14.508s.335 10.15.988 15.088c1.41 2.791 4.717 5.108 8.565 5.108.57 0 1.13-.05 1.67-.15.259.036.629.051.999.051 3.601 0 6.854-1.488 9.181-3.881a17.371 17.371 0 0 0 3.45-10.43c0-.385-.011-.767-.036-1.145a85.242 85.242 0 0 0-3.569-28.283c-4.959-7.642-12.426-14.008-21.301-17.632-17.415-8.774-31.376-16.854-44.878-25.587-6.01-4.743-12.464-12.15-17.115-20.679a63.006 63.006 0 0 1-8.28-32.406 46.619 46.619 0 0 1-.171-4.118c0-15.361 6.822-29.13 17.6-38.439 14.63-9.968 32.608-15.881 51.966-15.881.953 0 1.906.013 2.85.043l-.139-18.35h31.572v18.348c18.087.79 34.486 7.419 47.507 18.035 9.637 9.36 15.71 22.616 15.71 37.291 0 .95-.026 1.891-.075 2.83q.007 3.283.007 10.963h-68.268v-9.812c.067-.999.105-2.166.105-3.34a53.7 53.7 0 0 0-2.773-17.091c-1.73-2.53-4.93-4.432-8.572-4.432-.55 0-1.09.044-1.614.128a4.612 4.612 0 0 0-.57-.027c-3.55 0-6.71 1.668-8.74 4.26-1.939 3.046-3.079 6.727-3.079 10.672 0 .609.028 1.21.08 1.802-.108.75-.166 1.709-.166 2.678 0 6.376 2.498 12.17 6.57 16.454 10.53 7.451 22.555 14.555 35.157 20.656 15.259 7.368 26.859 14.18 37.89 21.763 5.721 4.717 11.063 11.426 14.693 19.1 4.215 9.09 6.59 19.338 6.59 30.141 0 .923-.017 1.841-.05 2.753.055.85.087 1.998.087 3.153 0 17.57-6.851 33.543-18.03 45.387zm188.16-298.664h-512v-85.332h512zm0-170.668h-512v-85.332h512z"/></svg>