<svg xmlns="http://www.w3.org/2000/svg" viewBox="0 0 1024 1024"><path d="M943.591 327.847L639.319 181.644 512 248.811l-132.445-67.167L80.409 322.452l142.966 77.147-137.03 71.752 164.544 96.028v151.867l261.112 149.44 262.191-149.709V562.256l161.847-96.3-130.825-66.626zM542.212 667.188V561.177l113.023 60.962 51.792-30.481v87.937l-164.005 95.49V668.536zm-223.888 12.407v-83.621l44.508 26.975 120.036-63.661v215.797l-164.544-94.142zm-92.522-205.007l79.036-41.271 144.314 77.687-84.7 44.508-138.65-80.923zm4.585-148.089l146.741-69.594 70.404 35.337-142.425 74.45-74.72-40.192zm344.733-35.066l65.547-34.258 152.676 73.371-69.863 36.416-148.361-75.529zM367.417 399.33L512 324.88l148.361 75.529L512 478.366l-144.314-77.687zm206.624 111.134l149.978-78.766 73.91 37.495-142.966 84.7-80.923-43.698z"/></svg>