<svg xmlns="http://www.w3.org/2000/svg" viewBox="0 0 1024 1024"><path d="M512 945.495c-235.642 0-426.668-191.026-426.668-426.668S276.358 92.159 512 92.159s426.668 191.026 426.668 426.668S747.642 945.495 512 945.495zm0-807.68c-210.429 0-381.012 170.587-381.012 381.012S301.575 899.839 512 899.839c210.429 0 381.012-170.587 381.012-381.012 0-210.429-170.587-381.012-381.012-381.012zm290.988 557.652c-8.131-5.636-17.492-11.17-27.248-16.034l-1.34-.606h-.013a6.404 6.404 0 0 0-6.386 5.952l-.001.02c0 5.972 22.612 17.492 28.16 20.908-46.89 70.377-117.55 121.731-200.304 142.85l-2.364.51-7.68-31.572c0-4.268-3.412-4.692-7.252-4.692s-5.12 4.692-4.692 7.252l7.68 32.428c-20.792 4.503-44.68 7.082-69.17 7.082-65.61 0-126.892-18.51-178.917-50.592l1.471.846c7.097-9.996 14.042-21.449 20.164-33.39l.744-1.596v-.013a6.404 6.404 0 0 0-5.952-6.386l-.02-.001c-6.828 0-20.908 28.588-25.172 34.132-71.094-47.493-122.749-119.304-143.304-203.314l-.484-2.338 32.428-7.252c2.772-.743 4.782-3.231 4.782-6.19 0-.374-.031-.743-.093-1.099l.007.038c0-3.412-4.692-5.12-7.68-4.692l-32.428 7.252c-4.163-19.899-6.547-42.766-6.547-66.19 0-66.919 19.45-129.294 53.01-181.783l-.81 1.356c9.308 6.561 19.934 12.812 31.07 18.184l1.357.59h.014a5.97 5.97 0 0 0 5.956-5.528l.001-.02c0-6.828-25.172-19.628-31.148-23.468 48.053-69.994 119.95-120.614 203.768-140.341l2.312-.459 7.252 32c.743 2.772 3.231 4.782 6.19 4.782.374 0 .743-.031 1.099-.093l-.038.007c3.412 0 5.12-4.692 4.692-7.68l-7.252-31.572c18.701-4.034 40.43-6.648 62.666-7.244l.482-.01c66.91.142 129.27 19.512 181.873 52.879l-1.393-.827c-6.809 9.03-13.061 19.245-18.291 30.047l-.481 1.101v.014a5.97 5.97 0 0 0 5.528 5.956l.02.001c6.828 0 19.628-24.748 23.04-30.292 69.352 47.542 119.698 118.452 139.89 201.184l.482 2.336-26.452 5.548c-4.268 0-4.692 3.84-4.692 7.68s4.692 5.12 7.252 4.692l27.308-6.4c4.396 20.17 7.028 43.419 7.25 67.244l.002.17c-.189 65.408-18.907 126.404-51.175 178.065l.83-1.425zm-91.736-426.668c-22.188 20.908-230.828 213.332-236.8 222.72l-166.4 276.052c21.76-20.48 230.828-213.332 236.372-222.292zM509.868 548.267c-.382.018-.83.03-1.28.03-16.039 0-29.042-13.003-29.042-29.042 0-15.59 12.283-28.31 27.698-29.01l.064-.003c.382-.018.83-.03 1.28-.03 16.039 0 29.042 13.003 29.042 29.042 0 15.59-12.283 28.31-27.698 29.01l-.064.003z"/></svg>