<svg xmlns="http://www.w3.org/2000/svg" viewBox="0 0 1024 1024"><path d="M661.332 476.159c35.347 0 64-28.653 64-64s-28.653-64-64-64-64 28.653-64 64 28.653 64 64 64zm-298.664 0c35.347 0 64-28.653 64-64s-28.653-64-64-64-64 28.653-64 64 28.653 64 64 64 64-28.653 64-64-28.653-64-64-64-64 28.653-64 64 28.653 64 64 64zM512 92.159c-235.642 0-426.668 191.026-426.668 426.668S276.358 945.495 512 945.495s426.668-191.026 426.668-426.668S747.642 92.159 512 92.159zm0 768c-188.512 0-341.332-152.82-341.332-341.332S323.488 177.495 512 177.495s341.332 152.82 341.332 341.332S700.512 860.159 512 860.159zm0-256c-98.84.01-183.389 61.19-217.845 147.75l70.645 1.584c29.918-50.849 84.37-84.434 146.668-84.434s116.75 33.589 146.233 83.642l71.631.792C694.451 665.68 610.414 604.63 512.059 604.161z"/></svg>