<svg xmlns="http://www.w3.org/2000/svg" viewBox="0 0 1024 1024"><path d="M512 92.16c-234.667 0-426.667 192-426.667 426.667s192 426.667 426.667 426.667 426.667-192 426.667-426.667S746.667 92.16 512 92.16zm0 768c-187.733 0-341.333-153.6-341.333-341.333S324.267 177.494 512 177.494c187.733 0 341.333 153.6 341.333 341.333 0 187.733-153.6 341.333-341.333 341.333zm42.667-430.933L601.6 476.16l46.933-46.933 46.933 46.933 46.933-46.933-89.6-89.6-98.133 89.6zm-174.934 0L422.4 476.16l46.933-46.933-89.6-89.6-89.6 89.6L332.8 476.16l46.933-46.933zM512 753.494c98.133 0 183.467-59.733 217.6-149.333H294.4c34.133 89.6 119.467 149.333 217.6 149.333z"/></svg>