<svg xmlns="http://www.w3.org/2000/svg" viewBox="0 0 1024 1024"><path d="M661.332 476.159c35.347 0 64-28.653 64-64s-28.653-64-64-64-64 28.653-64 64 28.653 64 64 64zm-298.664 0c35.347 0 64-28.653 64-64s-28.653-64-64-64-64 28.653-64 64 28.653 64 64 64 64-28.653 64-64-28.653-64-64-64-64 28.653-64 64 28.653 64 64 64zM512 92.159c-235.642 0-426.668 191.026-426.668 426.668S276.358 945.495 512 945.495s426.668-191.026 426.668-426.668S747.642 92.159 512 92.159zm0 768c-188.512 0-341.332-152.82-341.332-341.332S323.488 177.495 512 177.495s341.332 152.82 341.332 341.332S700.512 860.159 512 860.159zm0-170.664c-62.621-.17-117.281-34.09-146.765-84.528l-71.635-.808C328.629 692.28 413.17 753.443 512 753.443s183.371-61.163 217.845-147.701l-70.645-1.583c-29.919 51.242-84.579 85.164-147.175 85.332z"/></svg>