<svg xmlns="http://www.w3.org/2000/svg" viewBox="0 0 1024 1024"><path d="M475.307 262.827l200.96 184.745 262.4-170.665v-14.08c0-47.128-38.204-85.336-85.336-85.336H170.663c-47.128 0-85.336 38.204-85.336 85.336v133.976zm193.28 298.664L457.811 367.786 85.331 495.362v279.466c0 47.128 38.204 85.336 85.336 85.336h682.668c47.128 0 85.336-38.204 85.336-85.336v-390.4zM362.243 732.163c-18.584 12.187-41.192 19.721-65.512 20.473l-.198 22.191h-40.536v-20.904c-22.045-.952-42.485-7-60.424-16.995-14.898-9.144-25.147-26.047-25.147-45.349 0-1.784.088-3.551.261-5.29l-.018-10.445h85.336V689.5a77.207 77.207 0 0 0-.225 5.985 79.765 79.765 0 0 0 2.92 21.457c-.136 2.854 5.84 4.558 12.664 4.558a19.187 19.187 0 0 0 12.847-3.872 13.619 13.619 0 0 0 4.215-10.666c.1-1.256.152-2.76.152-4.28a60.816 60.816 0 0 0-4.136-22.124c-6.903-7.699-16.2-13.681-26.78-16.563q-39.208-15.448-53.288-22.701c-9.714-5.112-17.832-12.001-24.192-20.307-6.511-8.223-10.369-18.529-10.369-29.736l.002-.322a25.297 25.297 0 0 1-.008-.76c0-15.883 8.68-29.741 21.56-37.087 18.839-10.376 40.95-16.632 64.472-17.176l.166-17.068h39.256v17.064c21.768.493 42.005 6.614 59.447 16.952 11.334 7.395 19.095 20.6 19.095 35.623 0 .568-.009 1.133-.034 1.697.088 1.448.139 3.24.139 5.039s-.051 3.592-.152 5.368l-85.321-.248v-8.96c.101-1.041.153-2.248.153-3.472a38.72 38.72 0 0 0-3.24-15.551c.098-2.737-6.302-4.017-12.702-4.017a14.19 14.19 0 0 0-1.005-.031 16.133 16.133 0 0 0-10.536 3.891 15.302 15.302 0 0 0-3.873 10.201c0 .456.022.908.057 1.354a15.884 15.884 0 0 0-.126 2.104c0 6.499 3.226 12.243 8.168 15.718 12.716 6.728 27.933 13.352 43.656 18.904 19.601 7.274 33.656 13.736 47.231 20.979 6.105 3.64 12.84 9.968 17.836 17.544 6.195 8.635 9.859 19.137 9.945 30.488-.105 17.48-8.584 32.933-21.616 42.584z"/></svg>