<svg xmlns="http://www.w3.org/2000/svg" viewBox="0 0 1024 1024"><path d="M354.56 801.707a72.818 72.818 0 0 0-.973-.006c-40.445 0-73.507 31.616-75.818 71.482.666 40.215 33.259 72.391 73.367 72.391 1.204 0 2.401-.029 3.591-.086 1.491.142 3.424.22 5.375.22 39.823 0 72.107-32.283 72.107-72.107s-32.283-72.107-72.107-72.107c-1.951 0-3.883.077-5.795.229zm384 0a72.818 72.818 0 0 0-.973-.006c-40.445 0-73.507 31.616-75.818 71.482.666 40.215 33.259 72.391 73.367 72.391 1.204 0 2.401-.029 3.591-.086 1.491.142 3.424.22 5.375.22 39.823 0 72.107-32.283 72.107-72.107s-32.283-72.107-72.107-72.107c-1.951 0-3.883.077-5.795.229zM362.24 689.494v-8.533l34.56-56.747h285.867c.825.035 1.792.054 2.764.054 27.054 0 50.544-15.26 62.331-37.643L896 333.227l-65.28-34.133-42.667 71.68-103.68 181.333H416l-3.84-11.52L320 369.92l-34.56-70.4-34.56-72.107H128v72.107h76.8l136.533 275.627-53.76 85.333a45.446 45.446 0 0 0-11.666 30.481c0 1.285.053 2.558.157 3.817.9 39.66 33.399 71.595 73.358 71.595 1.207 0 2.407-.029 3.6-.087l460.632.006v-69.973H369.921a8.114 8.114 0 0 1-7.674-6.78zm140.373-234.667V385.28c-44.952-16.828-76.373-59.423-76.373-109.357 0-64.33 52.15-116.48 116.48-116.48 64.226 0 116.311 51.981 116.48 116.168-.41 27.806-10.671 53.122-27.437 72.705L583.68 302.08v141.227h141.653l-47.36-46.933c29.254-31.644 47.237-74.083 47.36-120.722.015-.892.023-1.914.023-2.939 0-102.975-83.478-186.453-186.453-186.453S352.45 169.738 352.45 272.713c0 89.522 63.09 164.308 147.234 182.321z"/></svg>