<svg xmlns="http://www.w3.org/2000/svg" viewBox="0 0 1024 1024"><path d="M341.333 774.827c-46.933 0-85.333 38.4-85.333 85.333s38.4 85.333 85.333 85.333 85.333-38.4 85.333-85.333-38.4-85.333-85.333-85.333zm-256-682.667v85.333h85.333l153.6 324.267-59.733 102.4c-4.267 12.8-8.533 29.867-8.533 42.667 0 46.933 38.4 85.333 85.333 85.333h512v-85.333H358.4c-4.267 0-8.533-4.267-8.533-8.533v-4.267l38.4-72.533h320c29.867 0 59.733-17.067 76.8-42.667l153.6-277.333v-21.333c0-25.6-17.067-42.667-42.667-42.667H264.533l-38.4-85.333h-140.8zM768 774.827c-46.933 0-85.333 38.4-85.333 85.333s38.4 85.333 85.333 85.333 85.333-38.4 85.333-85.333-38.4-85.333-85.333-85.333z"/></svg>