<svg xmlns="http://www.w3.org/2000/svg" viewBox="0 0 1024 1024"><path d="M512 637.227l148.268 87.468L620.8 559.627 752 448.695l-172.532-14.4L512 278.827l-67.468 155.732L272 448.691l130.932 110.932-39.468 165.068zm0-545.068c-235.642 0-426.668 191.026-426.668 426.668S276.358 945.495 512 945.495s426.668-191.026 426.668-426.668S747.642 92.159 512 92.159zm0 768c-188.512 0-341.332-152.82-341.332-341.332S323.488 177.495 512 177.495s341.332 152.82 341.332 341.332c-.304 188.39-152.943 341.031-341.305 341.332z"/></svg>