<svg xmlns="http://www.w3.org/2000/svg" viewBox="0 0 1024 1024"><path d="M861.867 134.827H162.134l-.428-.001c-42.18 0-76.373 34.194-76.373 76.373l.001.451v460.777l-.001.428c0 42.18 34.194 76.373 76.373 76.373l.451-.001h273.044v76.8h-76.8v76.8h311.467v-76.8h-76.8v-76.8h273.067l.428.001c42.18 0 76.373-34.194 76.373-76.373l-.001-.451V211.627c-4.304-42.035-38.564-74.822-80.877-76.793zm0 537.6H162.134v-460.8h699.733zM213.76 279.467h85.333V364.8H213.76v-85.333zm128 0h85.333V364.8H341.76v-85.333zm128 0h85.333V364.8H469.76v-85.333zm128 0h85.333V364.8H597.76v-85.333zm128 0h85.333V364.8H725.76v-85.333zm-512 122.88h85.333v85.333H213.76v-85.333zm128 0h85.333v85.333H341.76v-85.333zm128 0h85.333v85.333H469.76v-85.333zm128 0h85.333v85.333H597.76v-85.333zm128 0h85.333v85.333H725.76v-85.333zm-512 116.907h85.333v85.333H213.76v-85.333zm128 0h85.333v85.333H341.76v-85.333zm128 0h85.333v85.333H469.76v-85.333zm128 0h85.333v85.333H597.76v-85.333zm128 0h85.333v85.333H725.76v-85.333z"/></svg>