<svg xmlns="http://www.w3.org/2000/svg" viewBox="0 0 1024 1024"><path d="M512 92.159c-235.642 0-426.668 191.026-426.668 426.668S276.358 945.495 512 945.495s426.668-191.026 426.668-426.668S747.642 92.159 512 92.159zm4.268 768c-1.27.016-2.768.028-4.268.028-188.512 0-341.332-152.82-341.332-341.332S323.488 177.523 512 177.523c188.505 0 341.318 152.806 341.332 341.306v.002c.007.762.01 1.663.01 2.565 0 186.503-150.71 337.807-336.985 338.77h-.09zm-42.24-310.184c0 16.024-12.99 29.012-29.012 29.012s-29.012-12.99-29.012-29.012c0-16.024 12.99-29.012 29.012-29.012s29.012 12.99 29.012 29.012zm130.132 0c0 16.024-12.99 29.012-29.012 29.012s-29.012-12.99-29.012-29.012c0-16.024 12.99-29.012 29.012-29.012s29.012 12.99 29.012 29.012zm106.668 63.144c21.76-13.652 21.76-50.348 21.76-85.332-2.115-10.065-6.935-18.774-13.66-25.608l.008.008c-3.412-132.692-56.32-239.36-206.932-239.36s-203.52 106.668-206.932 241.492c-6.717 6.826-11.537 15.535-13.593 25.267l-.059.333c0 32.852 0 69.548 21.76 85.332 6.4 39.68-11.52 67.84-65.708 85.332 24.595 27.878 60.405 45.37 100.297 45.37 19.77 0 38.536-4.295 55.416-12.006l-.834.342c29.551 24.678 67.768 39.881 109.512 40.53l.14.002c42.437-2.058 80.593-18.865 109.8-45.358l-.148.13c16.047 7.369 34.811 11.664 54.583 11.664 39.892 0 75.702-17.491 100.171-45.227l.126-.146c-54.188-15.36-72.108-43.52-65.708-82.772zm-9.388-42.664c0 13.903-11.27 25.172-25.172 25.172H663.04c-3.08 14.765-7.05 27.611-12.07 39.923l.55-1.523c-26.19 20.67-58.821 34.287-94.452 37.496l-.692.05c-10.081-11.821-24.989-19.27-41.633-19.27-.964 0-1.922.026-2.871.073l.132-.007c-27.732 0-50.348 15.788-50.348 34.988s22.612 34.988 50.348 34.988c1.064.075 2.305.118 3.554.118 17.81 0 33.586-8.73 43.27-22.15l.109-.156c24.639-2.63 47.179-8.045 68.489-15.99l-1.929.63c-25.713 35.572-66.842 58.63-113.389 59.307l-.107.001c-72.532 0-133.548-62.292-150.612-146.772h-13.652c-13.903 0-25.172-11.27-25.172-25.172v-37.548c0-13.903 11.27-25.172 25.172-25.172h14.508c33.708-10.24 65.708-55.468 66.988-128 6.828 75.52 128 112.212 228.692 128h19.2c13.903 0 25.172 11.27 25.172 25.172z"/></svg>