<svg xmlns="http://www.w3.org/2000/svg" viewBox="0 0 1024 1024"><path d="M627.2 480.427L204.8 924.16 85.333 808.96l448-418.133 93.867 89.6zm230.4 72.533c-12.8 12.8-38.4 12.8-55.467 0l-17.067-17.067c-12.8-8.533-17.067-25.6-8.533-38.4 12.8-8.533 8.533-29.867-12.8-51.2-29.867-29.867-72.533-29.867-85.333-17.067-8.533 4.267-25.6 25.6-25.6 25.6l-98.133-85.333 17.067-12.8 12.8-12.8c17.067-17.067 17.067-42.667 0-59.733-55.467-46.933-128-76.8-204.8-76.8v-34.133c234.667-59.733 324.267 42.667 358.4 72.533l68.267 68.267c17.067 17.067 0 64 25.6 89.6 8.533 8.533 21.333 12.8 38.4 12.8 12.8-8.533 34.133-8.533 42.667 4.267l12.8 12.8c12.8 12.8 12.8 34.133 0 46.933l-68.267 72.533z"/></svg>