<svg xmlns="http://www.w3.org/2000/svg" viewBox="0 0 1024 1024"><path d="M283.346 515.764l133.35-133.35 33.188 33.188-133.35 133.35-33.188-33.188zM512 92.159c-235.642 0-426.668 191.026-426.668 426.668S276.358 945.495 512 945.495s426.668-191.026 426.668-426.668S747.642 92.159 512 92.159zm37.548 756.908l-133.12-200.108c-17.051 16.994-40.579 27.503-66.56 27.503s-49.509-10.509-66.563-27.506l-33.277-33.277c-16.994-17.051-27.503-40.579-27.503-66.56s10.509-49.509 27.506-66.563l166.397-166.397 33.28 33.28 33.28-33.28 66.56 66.56v-66.988l33.28-33.28v65.708l-33.28 33.28 33.28 33.28-33.28 33.28 33.28 33.28-66.56 67.84 133.12 199.68zm99.84-566.612l-33.28 33.28v-66.56l33.28-33.28z"/></svg>