<svg xmlns="http://www.w3.org/2000/svg" viewBox="0 0 1024 1024"><path d="M456.108 315.307h102.4v52.48h-102.4v-52.48zM512 92.159c-235.642 0-426.668 191.026-426.668 426.668S276.358 945.495 512 945.495s426.668-191.026 426.668-426.668S747.642 92.159 512 92.159zm223.572 587.52v.002c0 28.985-23.495 52.48-52.48 52.48l-.45-.002H330.665c-28.43-.715-51.2-23.93-51.2-52.465V574.291h177.068v29.868h98.132v-29.868h181.332zM768 492.799v.015c0 28.533-22.77 51.75-51.133 52.464l-153.667.002V492.8H460.8v52.48H307.2c-28.43-.715-51.2-23.93-51.2-52.465V416c-.002-.13-.002-.282-.002-.433 0-25.856 20.721-46.873 46.465-47.35l107.138-.001v-52.908l46.508-52.48h102.4l51.2 52.48v52.908h102.4c26.958 3.036 48.753 22.105 55.785 47.329z"/></svg>