<svg xmlns="http://www.w3.org/2000/svg" viewBox="0 0 1024 1024"><path d="M512 92.159c-235.642 0-426.668 191.026-426.668 426.668S276.358 945.495 512 945.495s426.668-191.026 426.668-426.668S747.642 92.159 512 92.159zm4.268 768c-1.27.016-2.768.028-4.268.028-188.512 0-341.332-152.82-341.332-341.332S323.488 177.523 512 177.523c188.505 0 341.318 152.806 341.332 341.306.007.764.01 1.665.01 2.567 0 186.503-150.71 337.807-336.985 338.77zm42.24-256H460.8v-29.868H283.732v105.403c0 28.533 22.77 51.75 51.133 52.464l353.771.002c28.43-.715 51.2-23.93 51.2-52.465V574.292H558.504zm153.6-235.944h-102.4v-52.908l-51.2-52.48h-102.4l-46.508 52.48v52.908H302.508c-25.789.478-46.51 21.495-46.51 47.351 0 .151.001.306.003.457v76.791c0 28.533 22.77 51.75 51.133 52.464l153.667.002V492.8h102.4v52.48h153.6c28.43-.715 51.2-23.93 51.2-52.465V416c-7.139-25.683-28.934-44.75-55.595-47.759zm-153.6 0h-102.4v-52.908h102.4z"/></svg>