<svg xmlns="http://www.w3.org/2000/svg" viewBox="0 0 1024 1024"><path d="M512 134.825c-230.922.297-418.004 187.567-418.004 418.526 0 145.407 74.151 273.495 186.705 348.51L512.005 673.05l229.773 229.773c114.082-75.977 188.235-204.065 188.235-349.472 0-230.965-187.083-418.231-417.978-418.526zm-27.621 440.296c-8.439 48.372-50.114 84.673-100.269 84.673-4.936 0-9.787-.351-14.535-1.032l-12.848.063c-.873.027-1.899.045-2.928.045-51.314 0-92.912-41.599-92.912-92.912v-.047l88.73.003v5.022a18.94 18.94 0 0 0-.038 1.261c0 11.788 9.556 21.344 21.344 21.344.16 0 .319-.002.477-.007.406.027.911.045 1.421.045 12.945 0 23.438-10.493 23.438-23.438 0-1.05-.068-2.079-.204-3.092.099-.695.151-1.645.151-2.601s-.048-1.903-.147-2.835c-3.536-15.598-17.378-27.162-33.92-27.162-2.061 0-4.077.179-6.039.524l-11.511-.028v-61.524h12.555c23.858 0 36.831-7.117 36.831-29.715 0-9.625 0-25.112-18.416-25.112s-17.996 19.67-17.996 22.599h-89.984v-3.348c7.497-47.997 48.542-84.289 98.066-84.289 3.789 0 7.527.211 11.205.624l-.452-.043a92.15 92.15 0 0 1 8.538-.387c48.54 0 88.543 36.567 93.963 83.655-.605 27.688-17.539 50.823-41.368 60.543 26.637 10.909 45.441 36.883 45.441 67.248 0 2.169-.098 4.311-.282 6.43s1.694 1.399 1.694 3.493zm160.713 79.519c-92.912 0-118.445-86.216-118.445-150.669s25.112-150.669 118.445-150.669 118.025 85.797 118.025 150.254-25.112 151.088-118.445 151.088zm-.42-235.215c-25.532 0-29.295 51.479-29.295 83.708s0 83.708 29.295 83.708c27.621 0 29.295-51.059 29.295-83.708s-3.348-83.708-29.295-83.708z"/></svg>