<svg xmlns="http://www.w3.org/2000/svg" viewBox="0 0 832 1024"><path d="M736 348.16H608.634l30.744-153.724c3.464-17.33-7.774-34.188-25.104-37.654-17.32-3.458-34.188 7.772-37.654 25.104L543.366 348.16h-190.73l30.744-153.724c3.464-17.33-7.774-34.188-25.104-37.654-17.322-3.458-34.188 7.772-37.654 25.104L287.366 348.16H160c-17.674 0-32 14.328-32 32s14.326 32 32 32h114.566l-38.4 192H96c-17.672 0-32 14.326-32 32s14.328 32 32 32h127.366l-30.744 153.724c-3.464 17.33 7.774 34.188 25.104 37.654 2.12.424 4.228.626 6.31.626 14.94 0 28.3-10.52 31.344-25.73l33.254-166.274h190.73L448.62 821.884c-3.464 17.33 7.774 34.188 25.104 37.654 2.12.424 4.228.626 6.31.626 14.94 0 28.3-10.52 31.344-25.73l33.256-166.274H672c17.674 0 32-14.326 32-32s-14.326-32-32-32H557.434l38.4-192H736c17.674 0 32-14.328 32-32s-14.326-32-32-32zm-243.834 256H301.434l38.4-192h190.732l-38.4 192z"/></svg>