<svg xmlns="http://www.w3.org/2000/svg" viewBox="0 0 768 1024"><path d="M192 476.16c-56.55 0-93.32-17.916-112.414-54.77C64 391.302 64 354.802 64 316.16s0-75.142 15.586-105.23C98.68 174.076 135.45 156.16 192 156.16s93.32 17.916 112.414 54.77C320 241.018 320 277.518 320 316.16s0 75.142-15.586 105.23C285.32 458.244 248.55 476.16 192 476.16zm0-256c-61.462 0-64 19.904-64 96s2.538 96 64 96 64-19.904 64-96-2.536-96-64-96zm384 640c-56.548 0-93.32-17.916-112.414-54.772C448 775.302 448 738.802 448 700.16s0-75.142 15.586-105.228C482.68 558.076 519.452 540.16 576 540.16s93.32 17.916 112.414 54.772C704 625.018 704 661.518 704 700.16s0 75.142-15.586 105.228C669.32 842.244 632.55 860.16 576 860.16zm0-256c-61.462 0-64 19.904-64 96s2.538 96 64 96 64-19.904 64-96-2.536-96-64-96zM159.972 860.162a31.839 31.839 0 0 1-18.322-5.788c-14.478-10.134-18-30.088-7.866-44.566l448-640c10.136-14.478 30.092-17.998 44.566-7.866 14.478 10.136 17.998 30.088 7.864 44.566l-448 640c-6.224 8.896-16.152 13.654-26.242 13.654z"/></svg>