<svg xmlns="http://www.w3.org/2000/svg" viewBox="0 0 384 1024"><path d="M96.012 1052.16c7.478 0 14.99-2.606 21.06-7.918 65.908-57.67 117.312-133.562 152.786-225.57C302.66 733.588 320 637.282 320 540.16c0-97.12-17.338-193.428-50.142-278.512-35.474-92.008-86.878-167.902-152.786-225.57-13.302-11.638-33.52-10.292-45.154 3.01-11.638 13.3-10.292 33.516 3.01 45.154C188.31 183.452 256 353.888 256 540.16S188.31 896.868 74.928 996.078c-13.3 11.636-14.648 31.854-3.01 45.154 6.326 7.23 15.186 10.928 24.094 10.928z"/></svg>