<svg xmlns="http://www.w3.org/2000/svg" viewBox="0 0 640 1024"><path d="M114.928 808.242c40.48 35.42 105.644 51.918 205.072 51.918s164.592-16.498 205.072-51.918C570.212 768.746 576 712.632 576 668.16s-5.788-100.586-50.928-140.082C484.592 492.658 419.428 476.16 320 476.16c-89.366 0-151.038 13.336-192 41.752V348.16c0-47.218 8.422-73.85 29.072-91.918C184.82 231.962 238.114 220.16 320 220.16c180.41 0 186.592 59.752 190.684 99.292 1.82 17.582 17.564 30.358 35.124 28.538 17.58-1.818 30.356-17.544 28.536-35.124-5.494-53.088-26.658-91.218-64.702-116.57C468.55 168.914 408.288 156.16 320 156.16c-99.428 0-164.592 16.498-205.072 51.918C69.788 247.574 64 303.688 64 348.16v320c0 44.472 5.788 100.586 50.928 140.082zm42.144-232C184.82 551.962 238.114 540.16 320 540.16s135.18 11.802 162.928 36.082C503.576 594.31 512 620.942 512 668.16s-8.422 73.85-29.072 91.918C455.18 784.358 401.886 796.16 320 796.16c-81.884 0-135.18-11.802-162.928-36.082C136.422 742.01 128 715.378 128 668.16s8.422-73.85 29.072-91.918z"/></svg>