<svg xmlns="http://www.w3.org/2000/svg" viewBox="0 0 640 1024"><path d="M320 860.16c-102.472 0-171.748-34.058-211.784-104.124C69.254 687.852 64 592.47 64 508.16c0-150.242 22.352-209.614 44.216-247.876C148.254 190.22 217.528 156.16 320 156.16s171.746 34.06 211.784 104.124C570.746 328.468 576 423.85 576 508.16c0 150.242-22.352 209.614-44.216 247.876C491.746 826.102 422.474 860.16 320 860.16zm0-640c-103.208 0-138.584 41.022-156.216 71.876C138.702 335.93 128 400.566 128 508.16c0 107.596 10.702 172.23 35.784 216.124C181.416 755.138 216.792 796.16 320 796.16s138.584-41.022 156.216-71.876C501.3 680.39 512 615.756 512 508.16c0-107.594-10.702-172.23-35.784-216.124C458.584 261.182 423.208 220.16 320 220.16z"/></svg>