<svg xmlns="http://www.w3.org/2000/svg" viewBox="0 0 640 1024"><path d="M320 860.16c-60.446 0-107.798-6.08-144.766-18.59-37.752-12.776-65.046-32.24-83.442-59.506-9.884-14.65-6.02-34.542 8.63-44.424 14.652-9.888 34.542-6.018 44.424 8.63 8.326 12.342 33.66 49.89 175.154 49.89 81.884 0 135.18-11.802 162.928-36.082C503.578 742.01 512 715.378 512 668.16s-8.422-73.85-29.072-91.918C455.18 551.962 401.886 540.16 320 540.16H160a32.002 32.002 0 0 1-31.84-35.186l32-320c1.636-16.356 15.4-28.814 31.84-28.814h352c17.674 0 32 14.328 32 32s-14.326 32-32 32H220.96l-25.6 256H320c99.428 0 164.592 16.498 205.072 51.916C570.212 567.574 576 623.688 576 668.16s-5.79 100.586-50.928 140.082C484.592 843.662 419.428 860.16 320 860.16z"/></svg>