<svg xmlns="http://www.w3.org/2000/svg" viewBox="0 0 832 1024"><path d="M682.628 241.532C625.18 184.086 537.968 156.16 416 156.16c-121.966 0-209.18 27.926-266.628 85.372C91.926 298.98 64 386.194 64 508.16s27.926 209.18 85.372 266.626C206.82 832.234 294.034 860.16 416 860.16c112.002 0 194.27-23.388 251.502-71.502 13.528-11.372 15.276-31.558 3.902-45.086-11.376-13.532-31.562-15.272-45.086-3.902-45.216 38.012-114.012 56.49-210.318 56.49-104.128 0-176.54-21.794-221.372-66.626C149.794 684.7 128 612.286 128 508.16c0-104.128 21.794-176.54 66.628-221.372C239.462 241.954 311.872 220.16 416 220.16c104.126 0 176.54 21.794 221.374 66.628C682.206 331.62 704 404.032 704 508.16v32c0 19.242-6.236 64-64 64s-64-44.758-64-64v-32c0-58.96-11.526-96.782-37.374-122.628C512.782 359.686 474.962 348.16 416 348.16s-96.782 11.526-122.628 37.372C267.526 411.378 256 449.2 256 508.16s11.526 96.782 37.372 122.626C319.22 656.634 357.04 668.16 416 668.16s96.782-11.526 122.626-37.374c1.17-1.17 2.3-2.374 3.412-3.594C564.586 653.104 598.61 668.16 640 668.16c76.56 0 128-51.44 128-128v-32c0-121.966-27.926-209.18-85.372-266.628zM493.374 585.534C480.664 598.24 456.078 604.16 416 604.16s-64.664-5.92-77.374-18.626C325.92 572.824 320 548.238 320 508.16s5.92-64.664 18.626-77.372c12.71-12.71 37.296-18.628 77.374-18.628s64.664 5.918 77.374 18.628C506.08 443.496 512 468.082 512 508.16s-5.92 64.664-18.626 77.374z"/></svg>