<svg xmlns="http://www.w3.org/2000/svg" viewBox="0 0 640 1024"><path d="M320 860.16H96c-17.672 0-32-14.326-32-32v-640c0-17.672 14.328-32 32-32h224c77.458 0 127.792 11.842 163.2 38.4 40.914 30.684 60.8 80.928 60.8 153.6 0 71.436-19.218 121.2-58.73 152.016 8.884 3.926 16.998 8.37 24.48 13.358C554.95 543.666 576 592.8 576 668.16s-21.05 124.494-66.25 154.624C470.458 848.982 413.708 860.16 320 860.16zm-192-64h192c162.992 0 192-33.54 192-128 0-37.684-4.484-79.2-37.75-101.376C446.628 548.37 399.054 540.16 320 540.16H128v256zm192-320c61.86 0 101.514-8.134 124.8-25.6 15.11-11.334 35.2-34.278 35.2-102.4s-20.09-91.066-35.2-102.4c-23.286-17.466-62.94-25.6-124.8-25.6H128v256h192z"/></svg>