<svg xmlns="http://www.w3.org/2000/svg" viewBox="0 0 960 1024"><path d="M863.966 860.166c-14.944 0-28.302-10.518-31.346-25.73L724.36 293.138l-215.12 484.02a32 32 0 0 1-58.482-.002l-215.12-484.02-108.26 541.298c-3.466 17.33-20.332 28.564-37.654 25.104-17.33-3.466-28.57-20.324-25.104-37.654l128-640a32.002 32.002 0 0 1 60.62-6.722L480 685.368l226.758-510.204c5.66-12.738 18.93-20.352 32.768-18.808a32.002 32.002 0 0 1 27.854 25.53l128 640c3.464 17.33-7.774 34.188-25.104 37.654a32.294 32.294 0 0 1-6.31.626z"/></svg>