<svg xmlns="http://www.w3.org/2000/svg" viewBox="0 0 704 1024"><path d="M384 860.16c-107.568 0-185.914-28.226-239.514-86.292C90.328 715.196 64 628.282 64 508.16c0-127.814 20.84-209.442 67.572-264.67 50.414-59.58 130.624-87.33 252.428-87.33 112.196 0 188.2 23.23 239.2 73.106 12.634 12.358 12.862 32.618.502 45.252-12.356 12.636-32.616 12.862-45.252.504-38.27-37.43-100.06-54.862-194.45-54.862-133.42 0-180.082 36.908-203.572 64.67C144.17 327.682 128 396.56 128 508.16c0 103.282 20.776 175.996 63.514 222.292C232.326 774.668 295.288 796.16 384 796.16c88.164 0 151.128-21.35 192.008-65.2v-190.8H480c-17.674 0-32-14.328-32-32s14.326-32 32-32h128.008c17.674 0 32 14.328 32 32v234.792c0 7.394-2.562 14.56-7.25 20.284-53.45 65.22-134.816 96.924-248.758 96.924z"/></svg>