<svg xmlns="http://www.w3.org/2000/svg" viewBox="0 0 704 1024"><path d="M384 860.16c-107.568 0-185.914-28.226-239.514-86.292C90.328 715.196 64 628.282 64 508.16c0-127.814 20.84-209.442 67.572-264.67 50.414-59.58 130.624-87.33 252.428-87.33 112.208 0 188.218 23.236 239.216 73.126 12.632 12.358 12.856 32.62.498 45.252-12.36 12.632-32.624 12.858-45.254.496C540.196 237.596 478.402 220.16 384 220.16c-133.42 0-180.082 36.908-203.572 64.67C144.168 327.682 128 396.56 128 508.16c0 103.282 20.776 175.996 63.514 222.292C232.326 774.668 295.288 796.16 384 796.16c81.876 0 141.514-18.184 182.334-55.588 13.03-11.944 33.272-11.06 45.208 1.97 11.944 13.032 11.056 33.274-1.97 45.21C556.406 836.476 482.622 860.16 384 860.16z"/></svg>