<svg xmlns="http://www.w3.org/2000/svg" viewBox="0 0 640 1024"><path d="M359.058 508.16l211.156-301.65c10.132-14.478 6.616-34.43-7.866-44.566-14.474-10.132-34.43-6.614-44.564 7.866L320 452.358 122.216 169.81c-10.134-14.478-30.086-18-44.566-7.866-14.478 10.136-18 30.088-7.866 44.566l211.154 301.65L69.784 809.808c-10.134 14.478-6.614 34.432 7.866 44.566a31.868 31.868 0 0 0 18.322 5.788c10.088 0 20.018-4.758 26.244-13.65L320 563.96l197.786 282.548c6.224 8.892 16.152 13.65 26.242 13.65 6.34 0 12.738-1.876 18.324-5.788 14.478-10.134 17.998-30.09 7.864-44.566L359.058 508.16z"/></svg>