<svg xmlns="http://www.w3.org/2000/svg" viewBox="0 0 960 1024"><path d="M671.996 860.16a32.002 32.002 0 0 1-30.356-21.88L480 353.352 318.358 838.28c-4.412 13.238-16.894 22.15-30.842 21.876a31.998 31.998 0 0 1-30.166-22.8l-192-640c-5.078-16.928 4.528-34.768 21.456-39.846 16.93-5.076 34.768 4.528 39.846 21.456l162.956 543.186 160.038-480.11c4.352-13.068 16.58-21.882 30.354-21.882s26.002 8.814 30.36 21.88l160.038 480.11 162.956-543.186c5.078-16.926 22.92-26.532 39.846-21.456 16.928 5.078 26.536 22.918 21.458 39.846l-192 640a31.995 31.995 0 0 1-30.662 22.806z"/></svg>