<svg xmlns="http://www.w3.org/2000/svg" viewBox="0 0 640 1024"><path d="M406.166 535.816c45.37-5.412 78.142-16.07 103.584-33.03C554.95 472.654 576 423.52 576 348.16s-21.05-124.494-66.25-154.626C470.458 167.338 413.708 156.16 320 156.16H96c-17.672 0-32 14.328-32 32v640c0 17.674 14.328 32 32 32s32-14.326 32-32v-288h192c4.804 0 9.49-.038 14.104-.096l182.448 304.542c5.996 10.012 16.604 15.558 27.48 15.558a31.848 31.848 0 0 0 16.414-4.552c15.16-9.082 20.09-28.734 11.008-43.896l-165.288-275.9zM128 476.16v-256h192c141.696 0 192 19.338 192 128 0 94.462-29.008 128-192 128H128z"/></svg>