<svg xmlns="http://www.w3.org/2000/svg" viewBox="0 0 256 1024"><path d="M-32.028 1051.328c-16.872 0-30.99-13.2-31.924-30.25-.966-17.646 12.554-32.734 30.202-33.704 61.176-3.35 102.224-17.63 125.49-43.656C116.478 916.044 128 869.158 128 796.16v-416c0-17.672 14.326-32 32-32s32 14.328 32 32v416c0 89.67-16.698 150.112-52.546 190.212-35.662 39.892-89.586 60.518-169.702 64.906-.596.034-1.19.05-1.78.05zM160 284.16c-17.674 0-32-14.328-32-32v-64c0-17.672 14.326-32 32-32s32 14.328 32 32v64c0 17.672-14.326 32-32 32z"/></svg>