<svg xmlns="http://www.w3.org/2000/svg" viewBox="0 0 640 1024"><path d="M514.624 409.532C472.756 367.662 410.912 348.16 320 348.16c-89.04 0-150.182 18.72-192 58.826V188.16c0-17.672-14.328-32-32-32s-32 14.328-32 32v640c0 17.674 14.328 32 32 32s32-14.326 32-32v-26.826c41.818 40.106 102.96 58.826 192 58.826 90.912 0 152.756-19.502 194.624-61.376C556.496 756.914 576 695.072 576 604.16s-19.502-152.756-61.376-194.628zm-45.248 344.004C440.292 782.618 392.826 796.16 320 796.16s-120.29-13.542-149.372-42.624C141.542 724.452 128 676.986 128 604.16s13.542-120.29 42.628-149.372C199.71 425.704 247.174 412.16 320 412.16s120.292 13.544 149.376 42.628C498.456 483.87 512 531.334 512 604.16s-13.544 120.292-42.624 149.376z"/></svg>