<svg xmlns="http://www.w3.org/2000/svg" viewBox="0 0 640 1024"><path d="M320 860.16c-105.224 0-169.348-19.35-207.916-62.74C72.176 752.528 64 687.696 64 604.16c0-90.912 19.502-152.756 61.374-194.628 41.87-41.87 103.714-61.372 194.626-61.372 84.432 0 143.218 16.674 185.014 52.474 42.292 36.224 65.182 91.684 69.984 169.55a32.012 32.012 0 0 1-8.624 23.89 32.002 32.002 0 0 1-23.316 10.08L128 604.16c0 81.564 9.248 125.236 31.916 150.74 25.366 28.538 74.736 41.26 160.084 41.26 116.79 0 149.988-25.958 165.864-48.576 10.152-14.462 30.11-17.958 44.578-7.806 14.462 10.152 17.958 30.114 7.804 44.578C500.95 837.488 435.68 860.16 320 860.16zm0-448c-72.826 0-120.29 13.544-149.374 42.628-19.496 19.496-32.008 47.254-38.14 85.372l374.982-.004c-6.722-41.862-21.042-71.172-44.09-90.916-29.128-24.952-76.026-37.08-143.378-37.08z"/></svg>