<svg xmlns="http://www.w3.org/2000/svg" viewBox="0 0 640 1024"><path d="M544 348.16c-17.674 0-32 14.328-32 32v26.828c-41.818-40.108-102.96-58.828-192-58.828-90.912 0-152.756 19.502-194.628 61.372C83.502 451.404 64 513.248 64 604.16s19.502 152.756 61.372 194.624C167.244 840.658 229.088 860.16 320 860.16c89.04 0 150.182-18.72 192-58.828v57.828c0 31.906 0 129-192 129-82.14 0-138.504-17.474-167.524-51.938-11.378-13.524-31.566-15.25-45.086-3.872-13.52 11.382-15.25 31.57-3.868 45.088 41.742 49.584 114.576 74.722 216.478 74.722 83.964 0 148.462-17.128 191.702-50.908C554.368 967.92 576 920.114 576 859.16v-479c0-17.672-14.326-32-32-32zm-74.624 405.376C440.292 782.618 392.826 796.16 320 796.16s-120.29-13.542-149.372-42.624C141.542 724.452 128 676.986 128 604.16s13.542-120.29 42.628-149.372C199.71 425.704 247.174 412.16 320 412.16s120.292 13.544 149.376 42.628C498.456 483.87 512 531.334 512 604.16s-13.544 120.292-42.624 149.376z"/></svg>