<svg xmlns="http://www.w3.org/2000/svg" viewBox="0 0 960 1024"><path d="M843.724 411.334C807.288 368.824 751.116 348.16 672 348.16c-79.118 0-135.29 20.664-171.722 63.174-7.624 8.894-14.372 18.696-20.278 29.474-5.906-10.78-12.652-20.58-20.276-29.474-36.436-42.51-92.608-63.174-171.724-63.174-71.082 0-123.632 16.692-160 50.912V380.16c0-17.672-14.328-32-32-32s-32 14.328-32 32v448c0 17.674 14.328 32 32 32s32-14.326 32-32v-224c0-72.782 12.06-122.232 36.868-151.174 23.874-27.854 63-40.826 123.132-40.826 60.13 0 99.258 12.972 123.13 40.826C435.94 481.928 448 531.378 448 604.16v224c0 17.674 14.326 32 32 32s32-14.326 32-32v-224c0-72.782 12.058-122.232 36.872-151.174 23.87-27.854 63-40.826 123.128-40.826 60.13 0 99.258 12.972 123.13 40.826C819.94 481.928 832 531.378 832 604.16v224c0 17.674 14.326 32 32 32s32-14.326 32-32v-224c0-89.946-16.612-151.216-52.276-192.826z"/></svg>