<svg xmlns="http://www.w3.org/2000/svg" viewBox="0 0 640 1024"><path d="M95.998 668.168c-3.63 0-7.324-.622-10.934-1.934-16.61-6.042-25.178-24.4-19.138-41.01 28.464-78.28 62.514-121.3 107.152-135.384 58.676-18.51 115.308 21.13 165.274 56.106 39.694 27.788 80.74 56.504 109.312 47.502 23.112-7.292 46.024-40.566 66.262-96.222 6.042-16.608 24.402-25.174 41.01-19.138 16.61 6.04 25.178 24.4 19.138 41.008-28.466 78.28-62.514 121.298-107.152 135.384-10.318 3.256-20.578 4.712-30.744 4.712-47.648.004-93.35-31.992-134.53-60.818-39.694-27.786-80.742-56.506-109.312-47.502-23.112 7.292-46.024 40.566-66.264 96.222-4.726 13.002-17 21.074-30.074 21.074z"/></svg>