<svg xmlns="http://www.w3.org/2000/svg" viewBox="0 0 512 1024"><path d="M256 860.16c-75.066 0-147.29-38.034-182.628-73.376-12.496-12.496-12.496-32.758 0-45.254 12.498-12.496 32.758-12.496 45.256 0 27.146 27.15 83.048 54.63 137.372 54.63 48.472 0 85.26-10.232 106.376-29.59C380.248 750.192 384 730.118 384 716.16c0-43.852-51.29-59.838-135.76-80.958-41.31-10.328-84.026-21.004-117.66-39.504C86.4 571.4 64 536.566 64 492.16c0-69.614 50.438-144 192-144 76.43 0 148.004 38.006 179.208 75.548 11.296 13.592 9.44 33.768-4.156 45.064-13.59 11.296-33.766 9.434-45.058-4.156-20.97-25.228-76.63-52.456-129.994-52.456-48.476 0-85.26 10.232-106.376 29.588C131.752 458.132 128 478.204 128 492.16c0 43.85 51.29 59.838 135.76 80.958 41.31 10.328 84.026 21.004 117.662 39.504C425.6 636.92 448 671.754 448 716.16c0 69.614-50.442 144-192 144z"/></svg>