<svg xmlns="http://www.w3.org/2000/svg" viewBox="0 0 832 1024"><path d="M416 668.16c-58.96 0-96.782-11.526-122.628-37.374C267.526 604.942 256 567.12 256 508.16s11.526-96.782 37.372-122.628C319.22 359.686 357.04 348.16 416 348.16c58.09 0 127.764 9.854 151.11 86.698 5.138 16.91-4.404 34.784-21.314 39.92-16.904 5.14-34.784-4.404-39.92-21.316-6.868-22.596-18.368-41.302-89.876-41.302-40.078 0-64.664 5.918-77.374 18.628C325.92 443.496 320 468.082 320 508.16s5.92 64.664 18.626 77.374c12.71 12.706 37.296 18.626 77.374 18.626 71.504 0 83.006-18.706 89.874-41.3 5.138-16.91 23.014-26.446 39.922-21.312 16.908 5.138 26.452 23.012 21.312 39.922-23.35 76.836-93.02 86.69-151.108 86.69zm0 192c-121.966 0-209.18-27.926-266.628-85.374C91.926 717.34 64 630.126 64 508.16s27.926-209.18 85.372-266.628C206.82 184.086 294.034 156.16 416 156.16s209.18 27.926 266.626 85.372C740.074 298.98 768 386.194 768 508.16s-27.926 209.18-85.374 266.626S537.968 860.16 416 860.16zm0-640c-104.128 0-176.54 21.794-221.372 66.628C149.794 331.62 128 404.032 128 508.16c0 104.126 21.794 176.54 66.628 221.374C239.462 774.366 311.872 796.16 416 796.16c104.126 0 176.54-21.794 221.374-66.626C682.206 684.7 704 612.286 704 508.16c0-104.128-21.794-176.54-66.626-221.372C592.54 241.954 520.128 220.16 416 220.16z"/></svg>