<svg xmlns="http://www.w3.org/2000/svg" viewBox="0 0 1024 1024"><path d="M387.84 397.655c0 28.042-22.73 50.772-50.772 50.772s-50.772-22.73-50.772-50.772c0-28.042 22.73-50.772 50.772-50.772s50.772 22.73 50.772 50.772zM512 92.159c-235.642 0-426.668 191.026-426.668 426.668S276.358 945.495 512 945.495s426.668-191.026 426.668-426.668S747.642 92.159 512 92.159zm-11.52 692.908L205.228 489.815l48.212-179.2 179.2-47.788 294.828 294.828zm104.96 5.972l-27.732-27.732L768 570.879 482.56 283.731l55.04-14.932 294.828 294.828z"/></svg>