<svg xmlns="http://www.w3.org/2000/svg" viewBox="0 0 1037 1024"><path d="M514.069 382.294h4.267c64 0 115.2 51.2 115.2 115.2v8.533L514.069 382.294zm-166.4 34.133c-12.8 25.6-21.333 55.467-21.333 85.333 0 106.667 85.333 196.267 196.267 196.267 29.867 0 59.733-8.533 85.333-21.333l-59.733-59.733c-8.533 4.267-17.067 4.267-25.6 4.267-64 0-115.2-51.2-115.2-115.2 0-8.533 0-17.067 4.267-25.6l-64-64zm-217.6-217.6l51.2-46.933 686.933 686.933-46.933 46.933c-42.667-42.667-89.6-85.333-132.267-128-55.467 21.333-110.933 34.133-170.667 34.133-187.733 0-358.4-115.2-426.667-290.133 29.867-76.8 81.067-145.067 145.067-196.267L130.068 198.826zm388.267 106.667c-25.6 0-46.933 4.267-72.533 12.8l-81.067-85.333c51.2-17.067 102.4-25.6 153.6-25.6 187.733 0 358.4 115.2 426.667 290.133-29.867 72.533-72.533 136.533-132.267 183.467L701.803 570.028c8.533-21.333 12.8-46.933 12.8-72.533 0-106.667-89.6-192-196.267-192z"/></svg>