<svg xmlns="http://www.w3.org/2000/svg" viewBox="0 0 1024 1024"><path d="M723.199 516.695c0-81.067-46.933-153.6-119.467-192v106.667l115.2 115.2c4.267-8.533 4.267-21.333 4.267-29.867zm119.467 0c0 42.667-8.533 85.333-25.6 123.733l72.533 72.533c34.133-59.733 51.2-128 51.2-196.267 0-200.533-136.533-371.2-332.8-413.867v98.133c136.533 38.4 234.667 170.667 234.667 315.733zM142.933 90.028L83.2 149.761l226.133 226.133H83.2v285.867h187.733l238.933 238.933v-320l200.533 200.533c-29.867 25.6-68.267 42.667-106.667 55.467v98.133c64-12.8 123.733-42.667 174.933-85.333l98.133 98.133 59.733-59.733-426.667-426.667-366.933-371.2zm366.933 46.934l-98.133 98.133 98.133 102.4V136.962z"/></svg>